<svg width="101" height="29" viewBox="0 0 101 29" fill="none" xmlns="http://www.w3.org/2000/svg">
<path d="M37.1 11.4004V3.10039H40.6C43.2 3.10039 45 4.60039 45 7.30039C45 9.80039 43.1 11.5004 40.6 11.5004L37.1 11.4004ZM42.8 7.2004C42.8 5.9004 42 4.90039 40.5 4.90039H39.1V9.40039H40.5C42 9.50039 42.8 8.5004 42.8 7.2004ZM45.8 7.2004C45.8 4.7004 47.7 2.90039 50.2 2.90039C52.7 2.90039 54.6 4.6004 54.6 7.2004C54.6 9.8004 52.7 11.5004 50.2 11.5004C47.7 11.5004 45.8 9.8004 45.8 7.2004ZM52.5 7.2004C52.5 5.8004 51.6 4.80039 50.2 4.80039C48.8 4.80039 47.9 5.8004 47.9 7.2004C47.9 8.5004 48.8 9.60039 50.2 9.60039C51.6 9.60039 52.5 8.6004 52.5 7.2004ZM60.5 11.4004L59.1 8.60039H58V11.4004H55.9V3.10039H60.1C61.9 3.10039 62.9 4.30039 62.9 5.90039C62.9 7.40039 62 8.10039 61.2 8.40039L62.9 11.5004H60.5V11.4004ZM60.8 5.90039C60.8 5.30039 60.4 5.00038 59.8 5.00038H58.1V6.7004H59.8C60.3 6.7004 60.8 6.40039 60.8 5.90039ZM63.8 7.2004C63.8 4.7004 65.7 2.90039 68.2 2.90039C70.7 2.90039 72.6 4.6004 72.6 7.2004C72.6 9.8004 70.7 11.5004 68.2 11.5004C65.7 11.5004 63.8 9.8004 63.8 7.2004ZM70.4 7.2004C70.4 5.8004 69.5 4.80039 68.1 4.80039C66.7 4.80039 65.8 5.8004 65.8 7.2004C65.8 8.5004 66.7 9.60039 68.1 9.60039C69.5 9.60039 70.4 8.6004 70.4 7.2004ZM79.5 11.4004V8.00038H76.1V11.4004H73.9V3.10039H76.1V6.2004H79.5V3.10039H81.6V11.4004H79.5ZM82.8 7.2004C82.8 4.7004 84.7 2.90039 87.2 2.90039C89.7 2.90039 91.6 4.6004 91.6 7.2004C91.6 9.8004 89.7 11.5004 87.2 11.5004C84.7 11.5004 82.8 9.8004 82.8 7.2004ZM89.5 7.2004C89.5 5.8004 88.6 4.80039 87.2 4.80039C85.8 4.80039 84.9 5.8004 84.9 7.2004C84.9 8.5004 85.8 9.60039 87.2 9.60039C88.7 9.60039 89.5 8.6004 89.5 7.2004ZM94.8 11.4004L91.7 3.10039H94.1L96.1 9.10039L98.1 3.10039H100.5L97.4 11.4004H94.8ZM37.1 25.2004V16.8004H40.6C43.2 16.8004 45.1 18.3004 45.1 21.0004C45.1 23.6004 43.2 25.2004 40.6 25.2004H37.1ZM43 21.0004C43 19.7004 42.2 18.7004 40.7 18.7004H39.3V23.3004H40.7C42.1 23.3004 43 22.3004 43 21.0004ZM46.4 25.2004V16.8004H52.5V18.7004H48.6V20.0004H52.4V21.8004H48.6V23.2004H52.5V25.1004H46.4V25.2004ZM53.5 24.0004L54.6 22.4004C55.2 23.0004 56.1 23.5004 57.2 23.5004C57.9 23.5004 58.4 23.2004 58.4 22.8004C58.4 21.7004 53.7 22.6004 53.7 19.3004C53.7 17.9004 54.9 16.7004 57 16.7004C58.3 16.7004 59.5 17.1004 60.4 17.9004L59.2 19.4004C58.5 18.8004 57.6 18.5004 56.8 18.5004C56.2 18.5004 55.9 18.7004 55.9 19.1004C55.9 20.1004 60.6 19.4004 60.6 22.5004C60.6 24.2004 59.3 25.3004 57.1 25.3004C55.5 25.3004 54.4 24.8004 53.5 24.0004ZM61.9 16.8004H64V25.1004H61.9V16.8004ZM65.4 21.0004C65.4 18.4004 67.5 16.7004 69.9 16.7004C71.7 16.7004 72.9 17.7004 73.4 18.8004L71.6 19.8004C71.3 19.3004 70.6 18.8004 69.8 18.8004C68.4 18.8004 67.4 19.8004 67.4 21.2004C67.4 22.6004 68.4 23.6004 69.8 23.6004C70.4 23.6004 71.1 23.4004 71.3 23.1004V22.4004H69.4V20.5004H73.4V23.8004C72.5 24.8004 71.3 25.4004 69.7 25.4004C67.4 25.3004 65.4 23.6004 65.4 21.0004ZM80.8 25.2004L77.3 20.3004V25.2004H75.2V16.8004H77.4L80.8 21.4004V16.8004H82.9V25.2004H80.8Z" fill="#B69C7D"/>
<path d="M11.3 -6.10352e-06H0V28.6H11.4C21 28.6 27.1 23 27.1 14.3C27.1 5.6 20.9 -6.10352e-06 11.3 -6.10352e-06ZM11.1 22.9H6V6.1H11.1C17.1 6.1 21.1 8.50001 21.1 14.2C21.2 19 17.4 22.9 11.1 22.9ZM12.2 10.9H10.9V17.7H12.2C14.8 17.7 16.3 16.2 16.3 14.2C16.3 11.9 14.6 10.9 12.2 10.9Z" fill="#B69C7D"/>
</svg>
