<?xml version="1.0" encoding="utf-8"?><svg viewBox="0 0 93 74" xmlns="http://www.w3.org/2000/svg" xmlns:xlink="http://www.w3.org/1999/xlink"><style>:root>svg{display:none}:root>svg:target{display:block}</style><svg fill="none" viewBox="0 0 8 5" id="drodd_i_arr" xmlns="http://www.w3.org/2000/svg"><path d="M3.646 4.854a.5.5 0 0 0 .708 0l3.182-3.182a.5.5 0 1 0-.708-.708L4 3.793 1.172.964a.5.5 0 1 0-.708.708l3.182 3.182zM3.5 4v.5h1V4h-1z" fill="#fff"/></svg><svg fill="none" viewBox="0 0 40 13" id="dropdown_bg_arr" xmlns="http://www.w3.org/2000/svg"><path d="M0 12.5h40L19.5 0 0 12.5z" fill="#202020"/></svg><svg fill="none" viewBox="0 0 24 24" id="form_comment" xmlns="http://www.w3.org/2000/svg"><path fill-rule="evenodd" clip-rule="evenodd" d="M12 2.302L2.302 12 12 21.698 21.698 12 12 2.302zm.674-2.023a.953.953 0 0 0-1.348 0L.279 11.326a.953.953 0 0 0 0 1.348l11.047 11.047a.953.953 0 0 0 1.348 0l11.047-11.047a.953.953 0 0 0 0-1.348L12.674.279z" fill="#B69C7D"/></svg><svg fill="none" viewBox="0 0 24 18" id="form_email" xmlns="http://www.w3.org/2000/svg"><rect x="24" y="16" width="2" height="24" rx="1" transform="rotate(90 24 16)" fill="#B69C7D"/><rect x="24" y="8" width="2" height="24" rx="1" transform="rotate(90 24 8)" fill="#B69C7D"/><rect x="24" width="2" height="24" rx="1" transform="rotate(90 24 0)" fill="#B69C7D"/></svg><svg fill="none" viewBox="0 0 16 21" id="form_file" xmlns="http://www.w3.org/2000/svg"><rect x="14.025" y=".351" width="1.65" height="19.799" rx=".825" fill="#B69C7D"/><rect x="7.425" y=".351" width="1.65" height="19.799" rx=".825" fill="#B69C7D"/><rect x=".825" y=".351" width="1.65" height="19.799" rx=".825" fill="#B69C7D"/></svg><svg fill="none" viewBox="0 0 26 26" id="form_name" xmlns="http://www.w3.org/2000/svg"><rect x="24.084" y="10.084" width="1.65" height="19.799" rx=".825" transform="rotate(45 24.084 10.084)" fill="#B69C7D"/><rect x="19.417" y="5.417" width="1.65" height="19.799" rx=".825" transform="rotate(45 19.417 5.417)" fill="#B69C7D"/><rect x="14.75" y=".75" width="1.65" height="19.799" rx=".825" transform="rotate(45 14.75 .75)" fill="#B69C7D"/></svg><svg fill="none" viewBox="0 0 24 20" id="form_phone" xmlns="http://www.w3.org/2000/svg"><path fill-rule="evenodd" clip-rule="evenodd" d="M5.156.543a1.841 1.841 0 0 1 2.611 0L12 4.792l4.233-4.25a1.841 1.841 0 0 1 2.61 0l4.887 4.905c.36.362.36.948 0 1.31a.92.92 0 0 1-1.306 0l-4.886-4.904-4.233 4.249c-.72.724-1.89.724-2.61 0L6.462 1.853 1.576 6.757a.92.92 0 0 1-1.306 0 .929.929 0 0 1 0-1.31L5.156.543z" fill="#B69C7D"/><path fill-rule="evenodd" clip-rule="evenodd" d="M5.156 7.029a1.841 1.841 0 0 1 2.611 0L12 11.277l4.233-4.248a1.841 1.841 0 0 1 2.61 0l4.887 4.904a.93.93 0 0 1 0 1.31.92.92 0 0 1-1.306 0l-4.886-4.904-4.233 4.249c-.72.724-1.89.724-2.61 0l-4.233-4.25-4.886 4.905a.92.92 0 0 1-1.306 0 .93.93 0 0 1 0-1.31l4.886-4.904z" fill="#B69C7D"/><path fill-rule="evenodd" clip-rule="evenodd" d="M5.156 13.514a1.841 1.841 0 0 1 2.611 0L12 17.764l4.233-4.25a1.841 1.841 0 0 1 2.61 0l4.887 4.905c.36.361.36.948 0 1.31a.92.92 0 0 1-1.306 0l-4.886-4.904-4.233 4.249c-.72.723-1.89.723-2.61 0l-4.233-4.25-4.886 4.905a.92.92 0 0 1-1.306 0 .929.929 0 0 1 0-1.31l4.886-4.905z" fill="#B69C7D"/></svg><svg fill="none" viewBox="0 0 70 70" id="index11" xmlns="http://www.w3.org/2000/svg"><path d="M68.633 7.383H48.877c-.752 0-1.367.615-1.367 1.367s.615 1.367 1.367 1.367h18.389v57.149H10.828c-4.457 0-8.094-3.637-8.094-8.094a6.436 6.436 0 0 1 6.426-6.426 5.068 5.068 0 0 1 5.059 5.031v.041a3.93 3.93 0 0 1-3.924 3.91A2.993 2.993 0 0 1 7.3 58.734c0-1.23.998-2.228 2.228-2.228.752 0 1.367-.615 1.367-1.367s-.615-1.367-1.367-1.367a4.971 4.971 0 0 0-4.963 4.962 5.736 5.736 0 0 0 5.729 5.729 6.658 6.658 0 0 0 6.63-6.111c.014-.082.028-.164.028-.246v-.274-.027V10.117h20.932c.752 0 1.367-.615 1.367-1.367s-.615-1.367-1.367-1.367H16.94C16.72 3.28 13.315 0 9.16 0 4.102 0 0 4.115 0 9.16v50.012C0 65.147 4.854 70 10.828 70h57.805c.752 0 1.367-.615 1.367-1.367V8.75c0-.752-.615-1.367-1.367-1.367zM5.469 3.91v15.86c0 .752.615 1.367 1.367 1.367s1.367-.616 1.367-1.367V2.803c.315-.041.629-.069.957-.069a5.065 5.065 0 0 1 5.059 5.059v44.092a7.79 7.79 0 0 0-5.059-1.873 9.144 9.144 0 0 0-6.426 2.638V9.16A6.399 6.399 0 0 1 5.47 3.91z" fill="#B69C7D"/><path d="M43.38 10.117c.356 0 .712-.15.972-.396a1.33 1.33 0 0 0 .396-.971c0-.37-.15-.71-.396-.97a1.33 1.33 0 0 0-.971-.397c-.37 0-.711.15-.97.396a1.33 1.33 0 0 0-.397.971c0 .37.15.71.396.97.246.26.602.397.97.397zM61.25 18.184H21.97c-.751 0-1.366.615-1.366 1.367s.615 1.367 1.367 1.367H61.25c.752 0 1.367-.615 1.367-1.367s-.615-1.367-1.367-1.367zM24.295 25.84H21.97c-.752 0-1.367.615-1.367 1.367s.615 1.367 1.367 1.367h2.324c.752 0 1.367-.615 1.367-1.367s-.615-1.367-1.367-1.367zM24.295 33.496H21.97c-.752 0-1.367.615-1.367 1.367s.615 1.367 1.367 1.367h2.324c.752 0 1.367-.615 1.367-1.367s-.615-1.367-1.367-1.367zM24.295 41.152H21.97c-.752 0-1.367.616-1.367 1.367 0 .753.615 1.368 1.367 1.368h2.324c.752 0 1.367-.615 1.367-1.367s-.615-1.368-1.367-1.368zM24.295 48.809H21.97c-.752 0-1.367.615-1.367 1.367s.615 1.367 1.367 1.367h2.324c.752 0 1.367-.615 1.367-1.367s-.615-1.367-1.367-1.367zM24.295 56.465H21.97c-.752 0-1.367.615-1.367 1.367s.615 1.367 1.367 1.367h2.324c.752 0 1.367-.615 1.367-1.367s-.615-1.367-1.367-1.367zM63.055 30.338a1.381 1.381 0 0 0 .505-1.873l-1.12-1.942a1.372 1.372 0 0 0-1.19-.683c-.492 0-.943.26-1.19.683l-1.12 1.956a1.37 1.37 0 0 0 .505 1.873c.137.082.287.136.438.164v15.271c-.15.028-.301.082-.451.164a1.381 1.381 0 0 0-.506 1.873l1.12 1.955c.247.424.698.684 1.19.684s.944-.26 1.19-.684l1.12-1.955a1.37 1.37 0 0 0-.505-1.873 1.31 1.31 0 0 0-.438-.164V30.502c.164-.027.315-.082.452-.164zM52.855 55.522a1.37 1.37 0 0 0-1.873.505 1.31 1.31 0 0 0-.164.438H35.547c-.027-.15-.082-.3-.164-.451a1.381 1.381 0 0 0-1.873-.506l-1.955 1.121a1.372 1.372 0 0 0-.684 1.19c0 .492.26.943.684 1.189l1.955 1.121c.218.123.45.178.683.178a1.376 1.376 0 0 0 1.354-1.121h15.285a1.376 1.376 0 0 0 1.354 1.121c.232 0 .464-.055.683-.178l1.955-1.121c.424-.246.684-.697.684-1.19 0-.492-.26-.943-.684-1.189l-1.968-1.107zM55.494 27.207c0-.752-.615-1.367-1.367-1.367H32.252c-.752 0-1.367.615-1.367 1.367v5.674c0 .752.615 1.367 1.367 1.367s1.367-.615 1.367-1.367v-4.307h4.744v7.848c0 .547.328 1.053.834 1.258a1.37 1.37 0 0 0 1.49-.287l2.489-2.461 2.488 2.46a1.345 1.345 0 0 0 1.49.288c.506-.22.834-.711.834-1.258v-7.848h4.744v19.14h-19.14v-4.388c0-.752-.615-1.367-1.367-1.367s-1.368.615-1.368 1.367v5.756c0 .752.616 1.367 1.368 1.367H54.1c.752 0 1.367-.615 1.367-1.367l.027-21.875zm-10.226 5.947l-1.121-1.107a1.369 1.369 0 0 0-.957-.397c-.342 0-.698.137-.958.397l-1.12 1.107v-4.58h4.17v4.58h-.014z" fill="#B69C7D"/><path d="M32.252 39.512c.355 0 .71-.15.97-.397.26-.26.397-.601.397-.97 0-.37-.15-.711-.396-.971a1.354 1.354 0 0 0-.971-.397c-.356 0-.711.15-.97.397a1.33 1.33 0 0 0-.397.97c0 .37.15.712.396.971.246.26.602.397.971.397zM49.629 44.693c.752 0 1.367-.615 1.367-1.367s-.615-1.367-1.367-1.367h-4.033c-.752 0-1.367.615-1.367 1.367s.615 1.367 1.367 1.367h4.033zM6.836 26.96c.355 0 .71-.15.97-.396.26-.26.397-.601.397-.97 0-.356-.15-.711-.396-.971a1.353 1.353 0 0 0-.971-.396c-.356 0-.711.15-.97.396-.26.26-.397.602-.397.97 0 .356.15.712.396.971.26.247.615.397.97.397z" fill="#B69C7D"/></svg><svg fill="none" viewBox="0 0 80 74" id="index12" xmlns="http://www.w3.org/2000/svg"><g clip-path="url(#iclip0)" fill="#B69C7D"><path d="M49.032 74.971V57.424c0-.69-.58-1.254-1.29-1.254h-1.29V7.288c0-4.84-4.049-8.773-9.033-8.773H24.516c-.71 0-1.29.564-1.29 1.253v3.76c0 .33.129.658.37.893l1.662 1.614-1.661 1.614c-.5.485-.5 1.284 0 1.77l1.661 1.614-1.661 1.614c-.5.485-.5 1.284 0 1.77l1.661 1.614-1.661 1.614c-.5.485-.5 1.284 0 1.77l1.661 1.614-1.661 1.613c-.5.486-.5 1.285 0 1.77l1.661 1.614-1.661 1.614c-.5.486-.5 1.285 0 1.77l1.661 1.614-1.661 1.614c-.5.486-.5 1.285 0 1.77l1.661 1.614-1.661 1.614c-.5.486-.5 1.285 0 1.77l1.661 1.614-1.661 1.614c-.5.486-.5 1.285 0 1.77l1.661 1.614-1.661 1.614c-.5.486-.5 1.285 0 1.77l1.661 1.614-1.661 1.614a1.224 1.224 0 0 0-.371.893v2.506h-1.29c-.71 0-1.29.565-1.29 1.254V74.83c0 .69.58 1.254 1.29 1.254h5.16c.71 0 1.291-.564 1.291-1.254v-3.76H41.29v3.76c0 .69.581 1.254 1.29 1.254h5.162c.71.14 1.29-.423 1.29-1.113zm-21.935-18.8h-1.29v-1.99l2.21-2.147c.5-.485.5-1.284 0-1.77l-1.678-1.614L28 47.036c.5-.485.5-1.284 0-1.77l-1.661-1.63L28 42.024c.5-.486.5-1.285 0-1.77l-1.661-1.63L28 37.01c.5-.485.5-1.284 0-1.77l-1.661-1.63L28 31.996c.5-.486.5-1.285 0-1.77l-1.661-1.63L28 26.982c.5-.485.5-1.284 0-1.77l-1.661-1.63L28 21.97c.5-.486.5-1.285 0-1.77l-1.661-1.63L28 16.955c.5-.486.5-1.285 0-1.77l-1.661-1.63L28 11.942c.5-.486.5-1.285 0-1.77l-1.661-1.63L28 6.928c.5-.486.5-1.285 0-1.77L25.806 3.01v-1.99H37.42c3.565 0 6.452 2.805 6.452 6.267v43.869h-2.58V13.555H38.71v37.602h-7.742v2.507H43.87v2.506h-1.29c-.71 0-1.29.565-1.29 1.254v3.76H28.386v-3.76c0-.69-.58-1.254-1.29-1.254zM43.87 73.718v-3.76c0-.69-.58-1.254-1.29-1.254H27.097c-.71 0-1.29.565-1.29 1.254v3.76h-2.581v-15.04h2.58v3.76c0 .689.581 1.253 1.29 1.253h15.485c.71 0 1.29-.564 1.29-1.254v-3.76h2.58v15.041h-2.58z"/><path d="M41.29 6.313c0-1.97-1.742-3.581-3.87-3.581-2.13 0-3.872 1.611-3.872 3.58 0 1.97 1.742 3.581 3.871 3.581 2.13 0 3.871-1.611 3.871-3.58zm-5.16 0c0-.657.58-1.194 1.29-1.194.71 0 1.29.537 1.29 1.194 0 .656-.58 1.193-1.29 1.193-.71 0-1.29-.537-1.29-1.193zM54.194.047v3.76h-1.29c-.71 0-1.291.564-1.291 1.254v5.014c0 .689.58 1.253 1.29 1.253h1.29v25.069h-1.29c-.71 0-1.29.564-1.29 1.253v5.014c0 .69.58 1.253 1.29 1.253h1.29v6.267c0 .69.581 1.254 1.29 1.254h1.291v2.507h-1.29c-.71 0-1.29.564-1.29 1.253V70.24c0 2.068 1.741 3.76 3.87 3.76 2.13 0 3.871-1.692 3.871-3.76V55.198c0-.69-.58-1.253-1.29-1.253h-1.29v-2.507h1.29c.71 0 1.29-.564 1.29-1.254v-6.267H78.71c.71 0 1.29-.564 1.29-1.253V5.06c0-.69-.58-1.254-1.29-1.254H61.936V.047c0-2.068-1.742-3.76-3.871-3.76-2.13 0-3.871 1.692-3.871 3.76zm5.16 56.405V70.24c0 .689-.58 1.253-1.29 1.253-.71 0-1.29-.564-1.29-1.253V56.452h2.58zm0-7.52h-2.58v-5.015h2.58v5.014zm2.581-12.535v-25.07h10.323v25.07H61.936zm-5.16-25.07h2.58v25.07h-2.58v-25.07zm20.644-5.013V41.41H54.194v-2.506h19.354c.71 0 1.29-.565 1.29-1.254V10.075c0-.69-.58-1.254-1.29-1.254H54.193V6.314H77.42zM59.355.047v3.76h-2.58V.047c0-.69.58-1.253 1.29-1.253.71 0 1.29.564 1.29 1.253z"/></g><defs><clipPath id="iclip0"><path fill="#fff" transform="rotate(90 40 40)" d="M0 0h74v80H0z"/></clipPath></defs></svg><svg fill="none" viewBox="0 0 73 73" id="index13" xmlns="http://www.w3.org/2000/svg"><g clip-path="url(#jclip0)" fill="#B69C7D"><path d="M53.477 20.236a1.436 1.436 0 0 0-1.008-.418c-.375 0-.743.153-1.008.418a1.434 1.434 0 0 0-.418 1.008c0 .375.152.743.418 1.008.265.265.633.418 1.008.418s.742-.153 1.008-.418c.265-.265.417-.633.417-1.008s-.152-.743-.417-1.008zM21.387 40.207H9.98c-.787 0-1.425.638-1.425 1.426v11.406c0 .788.638 1.426 1.425 1.426h11.407c.787 0 1.425-.639 1.425-1.426V41.633c0-.788-.638-1.426-1.425-1.426zM19.96 51.613h-8.555V43.06h8.555v8.554zM72.12 29.907a1.426 1.426 0 0 0-1.554.31L56.038 44.744h-.001v.001L39.1 61.682l-.001.002-8.883 8.882A1.426 1.426 0 0 0 31.225 73h40.35C72.36 73 73 72.362 73 71.574v-40.35c0-.576-.347-1.096-.88-1.317zM70.148 70.15H34.667l5.44-5.441 1.362 1.36a1.42 1.42 0 0 0 2.016 0 1.426 1.426 0 0 0 0-2.016l-1.36-1.36 3.629-3.63 1.36 1.36c.279.279.644.418 1.009.418a1.426 1.426 0 0 0 1.008-2.434l-1.361-1.36 3.63-3.63 1.36 1.36a1.421 1.421 0 0 0 2.016 0 1.426 1.426 0 0 0 0-2.016l-1.36-1.36 3.629-3.63 1.36 1.36c.28.28.644.419 1.01.419a1.426 1.426 0 0 0 1.008-2.434l-1.362-1.362 3.63-3.63 1.36 1.362c.279.278.644.418 1.009.418a1.426 1.426 0 0 0 1.008-2.434l-1.361-1.361 5.441-5.441v35.481z"/><path d="M64.99 47.118a1.426 1.426 0 0 0-1.553.31l-16.01 16.01a1.426 1.426 0 0 0 1.008 2.433h16.01c.788 0 1.426-.638 1.426-1.426v-16.01c0-.576-.347-1.096-.88-1.317zM63.02 63.02H51.876L63.02 51.878V63.02zM66.022 21.282a1.426 1.426 0 0 0-1.498-.331l-9.736 3.565a1.427 1.427 0 0 0-.518.33l-2.737 2.738L33.659 9.709a1.426 1.426 0 0 0-2.017 0L10.127 31.225H4.868L32.65 3.442l15.246 15.246a1.426 1.426 0 0 0 2.017-2.016L33.659.418a1.426 1.426 0 0 0-2.017 0L.418 31.642a1.426 1.426 0 0 0 1.008 2.435h1.426v37.497c0 .788.638 1.426 1.425 1.426h22.668a1.426 1.426 0 0 0 0-2.851H5.703V34.077h5.014c.378 0 .741-.15 1.009-.418L32.65 12.734 49.517 29.6 28.373 50.744V37.926h9.98a1.426 1.426 0 0 0 0-2.852H26.947c-.787 0-1.425.639-1.425 1.426v16.54c0 .166.03.325.082.473l-1.278 1.277a5.795 5.795 0 0 0 0 8.187 5.77 5.77 0 0 0 4.094 1.693 5.771 5.771 0 0 0 4.093-1.693l12.024-12.024a1.426 1.426 0 0 0-2.017-2.016l-9.11 9.11-4.153-4.154 26.05-26.05 4.154 4.153-9.954 9.955a1.426 1.426 0 1 0 2.016 2.016l10.934-10.934c.146-.146.26-.323.33-.518l3.566-9.735a1.426 1.426 0 0 0-.33-1.498zm-34.627 38.78l-.898.899a2.917 2.917 0 0 1-2.077.86 2.917 2.917 0 0 1-2.077-.86 2.917 2.917 0 0 1-.86-2.077c0-.785.305-1.522.86-2.077l.898-.898 4.154 4.154zm29.498-30.666l-2.985-2.986 4.71-1.725-1.725 4.71z"/><path d="M48.004 45.468a1.436 1.436 0 0 0-1.008-.418c-.375 0-.742.153-1.008.418a1.439 1.439 0 0 0-.417 1.008c0 .377.152.743.418 1.01a1.433 1.433 0 0 0 2.015 0c.266-.267.418-.635.418-1.01s-.152-.741-.418-1.008zM32.65 21.53a5.424 5.424 0 0 0-5.418 5.417 5.424 5.424 0 0 0 5.418 5.418 5.424 5.424 0 0 0 5.418-5.418 5.424 5.424 0 0 0-5.418-5.418zm0 7.984a2.57 2.57 0 0 1-2.566-2.567 2.57 2.57 0 0 1 2.566-2.566 2.57 2.57 0 0 1 2.567 2.566 2.57 2.57 0 0 1-2.567 2.567z"/></g><defs><clipPath id="jclip0"><path fill="#fff" d="M0 0h73v73H0z"/></clipPath></defs></svg><svg fill="none" viewBox="0 0 77 70" id="index14" xmlns="http://www.w3.org/2000/svg"><path d="M70.458 29.618c-.572 0-1.113.074-1.64.209L49.93 12.328v-2.154h17.265c2.09 0 3.79-1.69 3.79-3.769V2.382c0-.972-.587-1.825-1.474-2.199a2.366 2.366 0 0 0-2.602.524l-2.437 2.438H23.461c-.617 0-1.128.508-1.128 1.121 0 .614.511 1.122 1.128 1.122h41.493c.3 0 .586-.12.797-.329l2.752-2.767c.015-.015.06-.06.135-.03.075.03.075.09.075.12v4.023c0 .838-.691 1.526-1.533 1.526H9.956a1.536 1.536 0 0 1-1.534-1.526V2.636c0-.03 0-.09.09-.12s.12.016.15.03l2.211 2.468c.21.24.527.374.842.374h7.234c.617 0 1.128-.508 1.128-1.122 0-.613-.511-1.121-1.128-1.121h-6.737L10.347 1.05A2.361 2.361 0 0 0 7.715.408 2.361 2.361 0 0 0 6.181 2.62v3.77c0 2.078 1.7 3.768 3.79 3.768h17.25v2.005L8.18 29.827a6.563 6.563 0 0 0-1.639-.21C2.932 29.618 0 32.535 0 36.125s2.933 6.506 6.542 6.506c.21 0 .421-.015.632-.03l15.43 19.01-12.648 1.286a2.021 2.021 0 0 0-1.835 2.019v3.05c0 1.123.917 2.035 2.045 2.035h56.818a2.042 2.042 0 0 0 2.045-2.034v-3.051a2.021 2.021 0 0 0-1.834-2.02l-12.784-1.3L69.826 42.6c.21.015.422.03.632.03 3.61 0 6.542-2.917 6.542-6.506 0-3.59-2.933-6.506-6.542-6.506zM29.477 10.174h18.197v3.59c0 .329-.27.598-.602.598H30.078a.602.602 0 0 1-.601-.598v-3.59zm10.828 40.532h-3.46v-3.395l3.46-.808v4.203zm3.85 2.244c.45 0 .812.359.812.807v3.53H32.184v-3.53c0-.448.36-.807.812-.807h11.159zm-11.07-7.06c-.074.015-.15.03-.225.03a.98.98 0 0 1-.947-.748.966.966 0 0 1 .722-1.166l11.43-2.692c.075-.015.15-.03.225-.03.436 0 .842.299.947.748a.966.966 0 0 1-.721 1.166l-11.43 2.692zm7.22-5.997l-3.46.807v-1.615l3.46-.808v1.616zm-7.22-2.229c-.074.015-.15.03-.225.03a.98.98 0 0 1-.947-.748.966.966 0 0 1 .722-1.166l11.43-2.693c.075-.014.15-.03.225-.03.436 0 .842.3.947.748a.966.966 0 0 1-.721 1.167l-11.43 2.692zm7.22-5.997l-3.46.807V30.86l3.46-.808v1.616zm-7.22-2.229c-.074.015-.15.03-.225.03a.98.98 0 0 1-.947-.748.966.966 0 0 1 .722-1.166l11.43-2.692c.075-.015.15-.03.225-.03.436 0 .842.299.947.747a.966.966 0 0 1-.721 1.167l-11.43 2.692zm7.22-5.997l-3.46.807v-2.707h3.46v1.9zm-6.347-4.143a.72.72 0 0 1-.722-.718v-1.974h10.678v1.974a.72.72 0 0 1-.722.718h-9.234zm-6.452-4.308c.226.464.557.853.978 1.137L11.49 31.877a7.166 7.166 0 0 0-1.113-1.018l17.13-15.869zM6.542 40.386c-2.361 0-4.286-1.914-4.286-4.262 0-2.349 1.925-4.263 4.286-4.263 2.361 0 4.286 1.915 4.286 4.263s-1.925 4.262-4.286 4.262zm19.175 27.37h-15.34V65.11l15.34-1.57v4.218zm.015-6.476l-.451.045L9.52 41.912a5.87 5.87 0 0 0 1.248-.838l15.31 18.86a5.715 5.715 0 0 0-.346 1.346zm-13.49-21.97a6.441 6.441 0 0 0 .421-5.474L30.98 16.874v1.705c0 1.63 1.339 2.961 2.978 2.961h.632v3.246l-2.482.583a3.227 3.227 0 0 0-2.406 3.874 3.216 3.216 0 0 0 3.143 2.468c.256 0 .497-.03.752-.09l.978-.24v1.616l-2.482.583a3.227 3.227 0 0 0-2.406 3.874 3.216 3.216 0 0 0 3.143 2.468c.256 0 .497-.03.752-.09l.978-.224v1.615l-2.482.583a3.226 3.226 0 0 0-2.406 3.874 3.216 3.216 0 0 0 3.143 2.468c.256 0 .497-.03.752-.09l.978-.224v2.871H32.95a3.063 3.063 0 0 0-3.068 3.051v3.53a4.447 4.447 0 0 0-2.392.852l-15.25-18.83zm36.936 28.447H27.973v-6.043c0-1.196.977-2.183 2.195-2.183h16.814c1.203 0 2.196.972 2.196 2.183v6.043zm-1.955-10.455v-3.53c0-1.69-1.384-3.05-3.068-3.05H42.56v-4.757l2.482-.583a3.226 3.226 0 0 0 2.406-3.874c-.406-1.72-2.15-2.797-3.895-2.393l-.977.224v-1.6l2.481-.583a3.227 3.227 0 0 0 2.406-3.874c-.406-1.72-2.15-2.797-3.895-2.393l-.977.24v-1.616l2.481-.583a3.226 3.226 0 0 0 2.406-3.874c-.406-1.72-2.15-2.797-3.895-2.393l-.977.24V21.54h.631c1.64 0 2.978-1.331 2.978-2.961v-1.556l9.49 8.795a1.133 1.133 0 0 0 1.594-.06 1.112 1.112 0 0 0-.06-1.585l-8.663-7.987c.436-.27.782-.643 1.023-1.092l17.024 15.764c-.406.3-.782.628-1.113 1.017l-5.008-4.636a1.126 1.126 0 0 0-1.594.06 1.111 1.111 0 0 0 .06 1.585l5.37 4.965a6.299 6.299 0 0 0-.422 2.274c0 1.151.3 2.243.842 3.185L49.524 58.08a4.5 4.5 0 0 0-2.301-.777zm19.55 7.807v2.648h-15.34v-4.218l15.34 1.57zM51.734 61.31l-.315-.03a4.334 4.334 0 0 0-.406-1.465l15.204-18.74c.376.328.797.597 1.248.837L51.735 61.31zm18.724-20.924c-2.361 0-4.286-1.914-4.286-4.262 0-2.349 1.925-4.263 4.286-4.263 2.361 0 4.286 1.915 4.286 4.263s-1.925 4.262-4.286 4.262z" fill="#B69C7D"/></svg><svg fill="none" viewBox="0 0 22 22" id="instagram" xmlns="http://www.w3.org/2000/svg"><path d="M3.268 0h15.974C20.759 0 22 1.127 22 2.767v16.028c0 1.64-1.241 2.767-2.758 2.767H3.268c-1.517 0-2.758-1.126-2.758-2.767V2.767C.51 1.127 1.75 0 3.268 0zm12.897 2.396a.971.971 0 0 0-.967.97V5.69c0 .534.434.97.967.97h2.429a.972.972 0 0 0 .967-.97V3.366a.972.972 0 0 0-.967-.97h-2.43zm3.406 6.723H17.68c.179.586.276 1.207.276 1.85 0 3.586-2.992 6.493-6.68 6.493-3.69 0-6.68-2.907-6.68-6.494 0-.643.096-1.263.276-1.85H2.898v9.109c0 .471.384.857.854.857h14.965c.47 0 .855-.385.855-.857V9.119zm-8.296-2.58c-2.383 0-4.316 1.878-4.316 4.195 0 2.318 1.933 4.197 4.316 4.197 2.384 0 4.317-1.879 4.317-4.197 0-2.317-1.933-4.196-4.317-4.196z" fill="#B69C7D"/></svg><svg fill="none" viewBox="0 0 93 62" id="logo" xmlns="http://www.w3.org/2000/svg"><path d="M63.145 11.272c0 16.874-8.155 30.964-19.055 34.476h-.08c-2.867-.929-5.491-2.543-7.873-4.764-2.26-2.099-4.239-4.723-5.894-7.791h.363c3.876 0 7.67-.767 11.223-2.1l1.454 3.31c.12.324.444.485.767.485s.646-.202.767-.484l2.584-6.015c7.428-4.36 13.281-11.223 15.744-18.53v1.413z" fill="#fff"/><path d="M63.064 9.859c-3.068 5.127-7.71 9.688-13.241 12.918l3.027-6.944c.121-.242.081-.484 0-.686a.797.797 0 0 0-.726-.484h-1.777a.828.828 0 0 0-.767.524l-.403 1.01-3.593 8.72c-.848.363-1.736.686-2.584.969l-3.674-8.882-.726-1.776a.828.828 0 0 0-.767-.525h-1.777a.832.832 0 0 0-.767 1.17l.364.808 4.36 10.052c-2.18.485-4.4.767-6.661.767-2.18 0-4.118-.323-5.894-.968-1.252-3.836-2.06-8.075-2.302-12.515-.04-.888-.08-1.776-.08-2.665 0-.484 0-.969.04-1.453a18.09 18.09 0 0 0 2.584.202c6.338 0 12.151-3.512 16.47-9.326 4.32 5.773 10.134 9.326 16.472 9.326.848 0 1.655-.08 2.462-.162-.08-.08-.04-.08-.04-.08z" fill="#fff"/><path opacity=".2" d="M63.145 10.222c-.485 12.07-12.959 26.12-27.008 30.762-2.26-2.099-4.239-4.723-5.894-7.791h.363c3.876 0 7.67-.767 11.223-2.1l1.454 3.31c.12.324.444.485.767.485s.646-.202.767-.484l2.584-6.015c7.428-4.36 13.281-11.223 15.744-18.53v.363z" fill="#fff"/><path d="M45.543 24.917L44.05 28.55l-1.09-2.664c.847-.323 1.736-.646 2.583-.97z" fill="#fff"/><path opacity=".2" d="M39.932 26.693c-2.18.485-4.4.767-6.661.767-2.18 0-4.118-.323-5.894-.969-1.252-3.835-2.06-8.074-2.301-12.515a42.607 42.607 0 0 0 10.496 2.665l4.36 10.052zM49.136 16.197l-3.593 8.72c-.847.363-1.736.686-2.583.969l-3.674-8.882c1.292.08 2.584.08 3.876 0 1.978-.12 3.996-.363 5.974-.807zM63.064 9.859c-3.068 5.127-7.71 9.688-13.241 12.918l3.027-6.944c.122-.242.081-.484 0-.686A39.856 39.856 0 0 0 63.024 9.9c0-.04.04-.04.04-.04z" fill="#fff"/><path d="M7.151 61.896h-.969L.853 49.946h3.472l2.382 5.773 2.342-5.773h3.471l-5.369 11.95zM21.806 52.732h-5.087v1.615h3.633v2.543H16.72v2.059h5.288v2.745h-8.356V49.946h8.155v2.786zM26.973 55.275l3.876-5.329H34.4l-4.037 5.572 4.683 6.136h-3.633l-4.44-5.854v5.854h-3.07V49.906h3.07v5.37zM47.28 55.598l2.22-5.652h3.431l-4.844 11.95h-.97L44.13 55.76l-2.987 6.136h-.969l-4.844-11.95h3.431l2.22 5.652 2.705-5.853h.97l2.623 5.853zM59.673 49.745a7.02 7.02 0 0 1 2.463.444c.767.322 1.453.726 2.018 1.291a6.733 6.733 0 0 1 1.373 1.938c.323.727.484 1.534.484 2.422a6.18 6.18 0 0 1-.484 2.423 5.865 5.865 0 0 1-1.373 1.937c-.565.566-1.251.97-2.018 1.292-.767.323-1.575.444-2.463.444a7.02 7.02 0 0 1-2.462-.444c-.767-.282-1.413-.726-2.019-1.292a5.534 5.534 0 0 1-1.332-1.937c-.323-.727-.485-1.534-.485-2.423 0-.847.162-1.655.485-2.422a6.387 6.387 0 0 1 1.332-1.938 6.915 6.915 0 0 1 2.019-1.291 7.02 7.02 0 0 1 2.462-.444zm0 2.825c-.484 0-.888.081-1.292.243-.404.161-.726.363-1.009.686-.283.282-.484.646-.646 1.05a3.558 3.558 0 0 0-.242 1.332c0 .484.08.928.242 1.332.162.404.363.727.646 1.05.283.282.605.484 1.01.646.403.161.807.242 1.291.242.444 0 .888-.08 1.252-.242a2.892 2.892 0 0 0 1.009-.646c.282-.283.525-.646.686-1.05.162-.404.242-.848.242-1.332 0-.485-.08-.929-.242-1.332-.161-.404-.404-.727-.686-1.05a2.981 2.981 0 0 0-1.01-.686 3.145 3.145 0 0 0-1.25-.243zM73.44 49.745a7.02 7.02 0 0 1 2.462.444c.767.322 1.453.726 2.019 1.291a6.733 6.733 0 0 1 1.372 1.938c.323.727.484 1.534.484 2.422a6.18 6.18 0 0 1-.484 2.423A5.865 5.865 0 0 1 77.92 60.2c-.565.566-1.251.97-2.018 1.292-.767.323-1.575.444-2.463.444a7.02 7.02 0 0 1-2.462-.444c-.767-.282-1.413-.726-2.019-1.292a5.532 5.532 0 0 1-1.332-1.937c-.323-.727-.484-1.534-.484-2.423 0-.847.161-1.655.484-2.422a6.385 6.385 0 0 1 1.332-1.938 6.914 6.914 0 0 1 2.019-1.291 7.191 7.191 0 0 1 2.462-.444zm.04 2.825c-.485 0-.888.081-1.292.243-.404.161-.727.363-1.01.686-.282.282-.484.646-.645 1.05a3.556 3.556 0 0 0-.243 1.332 3.509 3.509 0 0 0 .888 2.382c.283.282.606.484 1.01.646.404.161.807.242 1.292.242.444 0 .888-.08 1.251-.242a2.893 2.893 0 0 0 1.01-.646c.282-.283.524-.646.686-1.05.161-.404.242-.848.242-1.332 0-.485-.08-.929-.242-1.332-.162-.404-.404-.727-.687-1.05a2.982 2.982 0 0 0-1.009-.686 3.29 3.29 0 0 0-1.251-.243zM85.631 49.946c.888 0 1.736.121 2.543.404.767.283 1.454.646 2.019 1.17.565.485 1.01 1.131 1.332 1.858.323.726.485 1.534.485 2.422 0 .888-.162 1.696-.485 2.422a5.595 5.595 0 0 1-1.332 1.857 5.986 5.986 0 0 1-2.019 1.211 7.307 7.307 0 0 1-2.543.444h-4.077V49.987h4.077v-.04zm-1.05 2.786v6.217h1.01c.444 0 .888-.08 1.292-.202a3.77 3.77 0 0 0 1.05-.605c.282-.243.524-.606.686-.97.161-.403.242-.847.242-1.332 0-.524-.081-.969-.242-1.372-.162-.404-.404-.687-.687-.97-.282-.282-.646-.443-1.05-.564a4.55 4.55 0 0 0-1.291-.202h-1.01z" fill="#fff"/></svg><svg fill="none" viewBox="0 0 12 12" id="ruble" xmlns="http://www.w3.org/2000/svg"><path d="M.818 10.09h1.91v1.637A.264.264 0 0 0 3 12h1.423a.269.269 0 0 0 .273-.273v-1.636H9c.08 0 .145-.026.196-.077a.265.265 0 0 0 .077-.196v-1.09a.265.265 0 0 0-.077-.197A.265.265 0 0 0 9 8.454H4.696V7.45h2.897c1.137 0 2.064-.347 2.783-1.04.719-.693 1.078-1.588 1.078-2.685 0-1.096-.36-1.99-1.078-2.684C9.657.347 8.73 0 7.593 0H3a.266.266 0 0 0-.196.077.266.266 0 0 0-.077.196v5.36H.818a.27.27 0 0 0-.273.273v1.27c0 .08.026.145.077.196a.265.265 0 0 0 .196.077h1.91v1.005H.817a.265.265 0 0 0-.196.077.265.265 0 0 0-.077.196v1.091c0 .08.026.145.077.196a.265.265 0 0 0 .196.077zm3.878-8.274h2.727c.602 0 1.088.176 1.457.528.37.352.554.813.554 1.38 0 .569-.184 1.03-.554 1.381-.37.353-.855.529-1.457.529H4.696V1.816z" fill="#FDE1C0"/></svg><svg fill="none" viewBox="0 0 41 22" id="vk" xmlns="http://www.w3.org/2000/svg"><path d="M39.933 19.367c-.05-.1-.094-.187-.137-.259-.683-1.23-1.99-2.75-3.917-4.541l-.043-.043-.022-.022-.021-.022h-.022c-.877-.835-1.43-1.396-1.66-1.684-.424-.547-.517-1.1-.288-1.662.166-.425.784-1.324 1.848-2.692.56-.727 1.006-1.31 1.336-1.749C39.372 3.541 40.4 1.526 40.084.655L39.96.453c-.079-.122-.294-.237-.632-.338-.345-.1-.784-.122-1.315-.05l-5.908.043c-.094-.036-.23-.029-.41.007L31.43.18l-.1.05-.08.065a.88.88 0 0 0-.222.216c-.08.1-.151.223-.202.36a33.438 33.438 0 0 1-2.199 4.62c-.503.85-.97 1.584-1.394 2.21-.424.626-.777 1.08-1.064 1.374a6.432 6.432 0 0 1-.783.706c-.23.18-.41.252-.532.223-.122-.029-.238-.058-.352-.08a1.3 1.3 0 0 1-.46-.503 2.379 2.379 0 0 1-.238-.799 8.178 8.178 0 0 1-.071-.835c-.008-.23 0-.561.007-.986.014-.424.021-.712.021-.863 0-.519.007-1.087.029-1.699.022-.612.036-.086.05-.439.015-.353.022-.734.022-1.13 0-.396-.022-.705-.072-.936a3.496 3.496 0 0 0-.216-.654 1.142 1.142 0 0 0-.424-.497 2.552 2.552 0 0 0-.69-.28C21.734.136 20.814.05 19.693.035c-2.544-.029-4.176.137-4.902.497a2.632 2.632 0 0 0-.776.619c-.244.302-.28.467-.1.496.819.122 1.401.418 1.746.885l.122.245c.094.18.194.497.288.943.093.453.158.95.187 1.497.064 1 .064.85 0 1.562a40.859 40.859 0 0 1-.194 1.662c-.065.396-.151.72-.28.964a6.283 6.283 0 0 1-.245.454.322.322 0 0 1-.1.1c-.18.065-.36.101-.554.101-.194 0-.424-.093-.697-.287a4.698 4.698 0 0 1-.848-.792c-.295-.338-.626-.806-1-1.41a25.44 25.44 0 0 1-1.15-2.138l-.33-.598a38.67 38.67 0 0 1-.84-1.677c-.36-.734-.67-1.439-.942-2.13a1.322 1.322 0 0 0-.496-.655l-.1-.065A1.142 1.142 0 0 0 8.15.137 2.114 2.114 0 0 0 7.676 0l-5.62.043c-.575 0-.963.13-1.172.389L.805.554C.762.626.74.734.74.885c0 .151.043.338.123.554a61.123 61.123 0 0 0 2.666 5.614c.963 1.8 1.804 3.239 2.516 4.333a51.048 51.048 0 0 0 2.177 3.102c.74.971 1.23 1.597 1.467 1.87.237.274.43.483.567.62l.51.496c.331.331.813.72 1.445 1.18.64.461 1.344.915 2.113 1.36.777.447 1.675.807 2.696 1.088 1.027.28 2.026.395 2.997.338h2.357c.482-.043.841-.194 1.085-.454l.08-.1c.057-.08.107-.209.15-.382.05-.173.072-.36.072-.568a6.437 6.437 0 0 1 .137-1.59c.1-.476.215-.829.352-1.066.13-.238.28-.439.438-.605.166-.165.28-.266.353-.295a.958.958 0 0 1 .165-.072c.33-.107.711 0 1.157.317.446.324.863.72 1.25 1.195.389.475.856 1 1.41 1.59.546.59 1.027 1.03 1.437 1.317l.41.245c.273.166.632.317 1.07.453.439.137.82.173 1.15.101l5.254-.079c.518 0 .927-.086 1.208-.259.287-.173.46-.36.51-.569.058-.208.058-.439.007-.698a2.75 2.75 0 0 0-.136-.554z" fill="#B69C7D"/></svg><svg fill="none" viewBox="0 0 31 22" id="youtube" xmlns="http://www.w3.org/2000/svg"><path d="M30.07 8.254a33.16 33.16 0 0 0-.143-2.299 20.997 20.997 0 0 0-.36-2.485 3.92 3.92 0 0 0-1.168-2.072 3.573 3.573 0 0 0-2.09-.977C23.824.141 20.069 0 15.043 0c-5.025 0-8.78.14-11.265.421a3.535 3.535 0 0 0-2.082.977A3.943 3.943 0 0 0 .537 3.47C.37 4.2.243 5.028.16 5.955a33.164 33.164 0 0 0-.142 2.3C.006 8.86 0 9.702 0 10.78c0 1.078.006 1.92.017 2.527.011.607.059 1.373.142 2.3.084.926.205 1.754.361 2.484.18.82.568 1.51 1.167 2.072a3.575 3.575 0 0 0 2.09.977c2.486.281 6.24.422 11.266.422s8.78-.14 11.266-.422a3.536 3.536 0 0 0 2.082-.977 3.944 3.944 0 0 0 1.158-2.072c.168-.73.294-1.558.378-2.485.084-.926.131-1.692.143-2.299.01-.606.017-1.449.017-2.527s-.006-1.92-.017-2.527zm-9.083 3.437l-8.596 5.39a.955.955 0 0 1-.571.169c-.168 0-.341-.045-.52-.135-.37-.202-.555-.517-.555-.943V5.39c0-.427.185-.741.554-.943.381-.203.745-.191 1.092.033l8.596 5.39c.336.191.503.495.503.91 0 .416-.168.72-.503.91z" fill="#B69C7D"/></svg></svg>