<?xml version="1.0" encoding="utf-8"?><svg viewBox="0 0 93 62" xmlns="http://www.w3.org/2000/svg" xmlns:xlink="http://www.w3.org/1999/xlink"><style>:root>svg{display:none}:root>svg:target{display:block}</style><svg fill="none" viewBox="0 0 93 62" id="logo" xmlns="http://www.w3.org/2000/svg"><path d="M63.145 11.272c0 16.874-8.155 30.964-19.055 34.476h-.08c-2.867-.929-5.491-2.543-7.873-4.764-2.26-2.099-4.239-4.723-5.894-7.791h.363c3.876 0 7.67-.767 11.223-2.1l1.454 3.31c.12.324.444.485.767.485s.646-.202.767-.484l2.584-6.015c7.428-4.36 13.281-11.223 15.744-18.53v1.413z" fill="#fff"/><path d="M63.064 9.859c-3.068 5.127-7.71 9.688-13.241 12.918l3.027-6.944c.121-.242.081-.484 0-.686a.797.797 0 0 0-.726-.484h-1.777a.828.828 0 0 0-.767.524l-.403 1.01-3.593 8.72c-.848.363-1.736.686-2.584.969l-3.674-8.882-.726-1.776a.828.828 0 0 0-.767-.525h-1.777a.832.832 0 0 0-.767 1.17l.364.808 4.36 10.052c-2.18.485-4.4.767-6.661.767-2.18 0-4.118-.323-5.894-.968-1.252-3.836-2.06-8.075-2.302-12.515-.04-.888-.08-1.776-.08-2.665 0-.484 0-.969.04-1.453a18.09 18.09 0 0 0 2.584.202c6.338 0 12.151-3.512 16.47-9.326 4.32 5.773 10.134 9.326 16.472 9.326.848 0 1.655-.08 2.462-.162-.08-.08-.04-.08-.04-.08z" fill="#fff"/><path opacity=".2" d="M63.145 10.222c-.485 12.07-12.959 26.12-27.008 30.762-2.26-2.099-4.239-4.723-5.894-7.791h.363c3.876 0 7.67-.767 11.223-2.1l1.454 3.31c.12.324.444.485.767.485s.646-.202.767-.484l2.584-6.015c7.428-4.36 13.281-11.223 15.744-18.53v.363z" fill="#fff"/><path d="M45.543 24.917L44.05 28.55l-1.09-2.664c.847-.323 1.736-.646 2.583-.97z" fill="#fff"/><path opacity=".2" d="M39.932 26.693c-2.18.485-4.4.767-6.661.767-2.18 0-4.118-.323-5.894-.969-1.252-3.835-2.06-8.074-2.301-12.515a42.607 42.607 0 0 0 10.496 2.665l4.36 10.052zM49.136 16.197l-3.593 8.72c-.847.363-1.736.686-2.583.969l-3.674-8.882c1.292.08 2.584.08 3.876 0 1.978-.12 3.996-.363 5.974-.807zM63.064 9.859c-3.068 5.127-7.71 9.688-13.241 12.918l3.027-6.944c.122-.242.081-.484 0-.686A39.856 39.856 0 0 0 63.024 9.9c0-.04.04-.04.04-.04z" fill="#fff"/><path d="M7.151 61.896h-.969L.853 49.946h3.472l2.382 5.773 2.342-5.773h3.471l-5.369 11.95zM21.806 52.732h-5.087v1.615h3.633v2.543H16.72v2.059h5.288v2.745h-8.356V49.946h8.155v2.786zM26.973 55.275l3.876-5.329H34.4l-4.037 5.572 4.683 6.136h-3.633l-4.44-5.854v5.854h-3.07V49.906h3.07v5.37zM47.28 55.598l2.22-5.652h3.431l-4.844 11.95h-.97L44.13 55.76l-2.987 6.136h-.969l-4.844-11.95h3.431l2.22 5.652 2.705-5.853h.97l2.623 5.853zM59.673 49.745a7.02 7.02 0 0 1 2.463.444c.767.322 1.453.726 2.018 1.291a6.733 6.733 0 0 1 1.373 1.938c.323.727.484 1.534.484 2.422a6.18 6.18 0 0 1-.484 2.423 5.865 5.865 0 0 1-1.373 1.937c-.565.566-1.251.97-2.018 1.292-.767.323-1.575.444-2.463.444a7.02 7.02 0 0 1-2.462-.444c-.767-.282-1.413-.726-2.019-1.292a5.534 5.534 0 0 1-1.332-1.937c-.323-.727-.485-1.534-.485-2.423 0-.847.162-1.655.485-2.422a6.387 6.387 0 0 1 1.332-1.938 6.915 6.915 0 0 1 2.019-1.291 7.02 7.02 0 0 1 2.462-.444zm0 2.825c-.484 0-.888.081-1.292.243-.404.161-.726.363-1.009.686-.283.282-.484.646-.646 1.05a3.558 3.558 0 0 0-.242 1.332c0 .484.08.928.242 1.332.162.404.363.727.646 1.05.283.282.605.484 1.01.646.403.161.807.242 1.291.242.444 0 .888-.08 1.252-.242a2.892 2.892 0 0 0 1.009-.646c.282-.283.525-.646.686-1.05.162-.404.242-.848.242-1.332 0-.485-.08-.929-.242-1.332-.161-.404-.404-.727-.686-1.05a2.981 2.981 0 0 0-1.01-.686 3.145 3.145 0 0 0-1.25-.243zM73.44 49.745a7.02 7.02 0 0 1 2.462.444c.767.322 1.453.726 2.019 1.291a6.733 6.733 0 0 1 1.372 1.938c.323.727.484 1.534.484 2.422a6.18 6.18 0 0 1-.484 2.423A5.865 5.865 0 0 1 77.92 60.2c-.565.566-1.251.97-2.018 1.292-.767.323-1.575.444-2.463.444a7.02 7.02 0 0 1-2.462-.444c-.767-.282-1.413-.726-2.019-1.292a5.532 5.532 0 0 1-1.332-1.937c-.323-.727-.484-1.534-.484-2.423 0-.847.161-1.655.484-2.422a6.385 6.385 0 0 1 1.332-1.938 6.914 6.914 0 0 1 2.019-1.291 7.191 7.191 0 0 1 2.462-.444zm.04 2.825c-.485 0-.888.081-1.292.243-.404.161-.727.363-1.01.686-.282.282-.484.646-.645 1.05a3.556 3.556 0 0 0-.243 1.332 3.509 3.509 0 0 0 .888 2.382c.283.282.606.484 1.01.646.404.161.807.242 1.292.242.444 0 .888-.08 1.251-.242a2.893 2.893 0 0 0 1.01-.646c.282-.283.524-.646.686-1.05.161-.404.242-.848.242-1.332 0-.485-.08-.929-.242-1.332-.162-.404-.404-.727-.687-1.05a2.982 2.982 0 0 0-1.009-.686 3.29 3.29 0 0 0-1.251-.243zM85.631 49.946c.888 0 1.736.121 2.543.404.767.283 1.454.646 2.019 1.17.565.485 1.01 1.131 1.332 1.858.323.726.485 1.534.485 2.422 0 .888-.162 1.696-.485 2.422a5.595 5.595 0 0 1-1.332 1.857 5.986 5.986 0 0 1-2.019 1.211 7.307 7.307 0 0 1-2.543.444h-4.077V49.987h4.077v-.04zm-1.05 2.786v6.217h1.01c.444 0 .888-.08 1.292-.202a3.77 3.77 0 0 0 1.05-.605c.282-.243.524-.606.686-.97.161-.403.242-.847.242-1.332 0-.524-.081-.969-.242-1.372-.162-.404-.404-.687-.687-.97-.282-.282-.646-.443-1.05-.564a4.55 4.55 0 0 0-1.291-.202h-1.01z" fill="#fff"/></svg></svg>