<svg width="48" height="38" viewBox="0 0 48 38" fill="none" xmlns="http://www.w3.org/2000/svg">
<path d="M42.4519 37.9622H5.54721C2.48798 37.9622 0 35.4743 0 32.415V9.91817C0 6.85894 2.48798 4.37096 5.54721 4.37096H13.0776L13.7368 2.14738C14.0058 0.930653 15.1181 0.0375977 16.4263 0.0375977H31.5739C32.8451 0.0375977 33.9702 0.92605 34.268 2.15846L34.2855 2.23427L34.8864 4.37081H42.4528C45.512 4.37081 48 6.8588 48 9.91803V32.4147C47.9991 35.4743 45.5103 37.9622 42.4519 37.9622ZM5.54721 6.22008C3.50763 6.22008 1.84912 7.87873 1.84912 9.91817V32.4149C1.84912 34.4545 3.50777 36.113 5.54721 36.113H42.4519C44.4915 36.113 46.15 34.4543 46.15 32.4149V9.91817C46.15 7.87859 44.4914 6.22008 42.4519 6.22008H33.4858L32.4735 2.60973C32.3802 2.18996 32.002 1.88585 31.573 1.88585H16.4253C15.9898 1.88585 15.62 2.18349 15.5247 2.61074L14.456 6.22008H5.54721ZM24.001 32.3733C17.5302 32.3733 12.2658 27.1099 12.2658 20.64C12.2658 14.1693 17.5301 8.90586 24.001 8.90586C30.47 8.90586 35.7334 14.1701 35.7334 20.64C35.7333 27.1091 30.4699 32.3733 24.001 32.3733ZM24.001 10.754C18.5499 10.754 14.115 15.188 14.115 20.6392C14.115 26.0903 18.55 30.5233 24.001 30.5233C29.4511 30.5233 33.8843 26.0893 33.8843 20.6392C33.8842 15.188 29.4501 10.754 24.001 10.754ZM41.2584 9.6519C40.3154 9.6519 39.5525 10.4165 39.5525 11.3577C39.5525 12.2998 40.3152 13.0634 41.2584 13.0634C42.2005 13.0634 42.9632 12.2997 42.9632 11.3577C42.9623 10.4165 42.1995 9.6519 41.2584 9.6519Z" fill="black"/>
</svg>
