<svg width="24" height="20" viewBox="0 0 24 20" fill="none" xmlns="http://www.w3.org/2000/svg">
<path fill-rule="evenodd" clip-rule="evenodd" d="M5.15611 0.542751C5.87708 -0.180917 7.046 -0.180917 7.76697 0.542751L12 4.79164L16.233 0.542751C16.954 -0.180917 18.1229 -0.180917 18.8439 0.542751L23.7296 5.44679C24.0901 5.80863 24.0901 6.39528 23.7296 6.75711C23.3692 7.11895 22.7847 7.11895 22.4242 6.75711L17.5385 1.85307L13.3054 6.10195C12.5845 6.82562 11.4155 6.82562 10.6946 6.10195L6.46154 1.85307L1.57579 6.75711C1.21531 7.11895 0.630847 7.11895 0.270363 6.75711C-0.090121 6.39528 -0.090121 5.80863 0.270363 5.44679L5.15611 0.542751Z" fill="#B69C7D"/>
<path fill-rule="evenodd" clip-rule="evenodd" d="M5.15611 7.02859C5.87708 6.30492 7.046 6.30492 7.76697 7.02859L12 11.2775L16.233 7.02859C16.954 6.30492 18.1229 6.30492 18.8439 7.02859L23.7296 11.9326C24.0901 12.2945 24.0901 12.8811 23.7296 13.243C23.3692 13.6048 22.7847 13.6048 22.4242 13.243L17.5385 8.33891L13.3054 12.5878C12.5845 13.3115 11.4155 13.3115 10.6946 12.5878L6.46154 8.33891L1.57579 13.243C1.21531 13.6048 0.630847 13.6048 0.270363 13.243C-0.090121 12.8811 -0.090121 12.2945 0.270363 11.9326L5.15611 7.02859Z" fill="#B69C7D"/>
<path fill-rule="evenodd" clip-rule="evenodd" d="M5.15611 13.5144C5.87708 12.7908 7.046 12.7908 7.76697 13.5144L12 17.7633L16.233 13.5144C16.954 12.7908 18.1229 12.7908 18.8439 13.5144L23.7296 18.4185C24.0901 18.7803 24.0901 19.367 23.7296 19.7288C23.3692 20.0906 22.7847 20.0906 22.4242 19.7288L17.5385 14.8247L13.3054 19.0736C12.5845 19.7973 11.4155 19.7973 10.6946 19.0736L6.46154 14.8247L1.57579 19.7288C1.21531 20.0906 0.630847 20.0906 0.270363 19.7288C-0.090121 19.367 -0.090121 18.7803 0.270363 18.4185L5.15611 13.5144Z" fill="#B69C7D"/>
</svg>
