<svg width="70" height="70" viewBox="0 0 70 70" fill="none" xmlns="http://www.w3.org/2000/svg">
<path d="M68.6328 7.38281H48.877C48.125 7.38281 47.5098 7.99805 47.5098 8.75C47.5098 9.50195 48.125 10.1172 48.877 10.1172H67.2656V67.2656H10.8281C6.3711 67.2656 2.73438 63.6289 2.73438 59.1719C2.73438 55.6309 5.61914 52.7461 9.16016 52.7461C11.9355 52.7461 14.2051 55.002 14.2188 57.7773V57.8184C14.2051 59.9785 12.4551 61.7285 10.2949 61.7285C8.64062 61.7285 7.30078 60.3887 7.30078 58.7344C7.30078 57.5039 8.29883 56.5059 9.5293 56.5059C10.2813 56.5059 10.8965 55.8906 10.8965 55.1387C10.8965 54.3867 10.2813 53.7715 9.5293 53.7715C6.79492 53.7715 4.56641 56 4.56641 58.7344C4.56641 61.8926 7.13672 64.4629 10.2949 64.4629C13.7812 64.4629 16.6523 61.7695 16.9258 58.3516C16.9395 58.2695 16.9531 58.1875 16.9531 58.1055V57.832C16.9531 57.8184 16.9531 57.8184 16.9531 57.8047C16.9531 57.791 16.9531 57.791 16.9531 57.7773V10.1172H37.8848C38.6367 10.1172 39.2519 9.50195 39.2519 8.75C39.2519 7.99805 38.6367 7.38281 37.8848 7.38281H16.9395C16.7207 3.28125 13.3164 0 9.16016 0C4.10156 0 0 4.11523 0 9.16016V59.1719C0 65.1465 4.85352 70 10.8281 70H68.6328C69.3848 70 70 69.3848 70 68.6328V8.75C70 7.99805 69.3848 7.38281 68.6328 7.38281ZM5.46875 3.91016V19.7695C5.46875 20.5215 6.08398 21.1367 6.83594 21.1367C7.58789 21.1367 8.20312 20.5215 8.20312 19.7695V2.80273C8.51758 2.76172 8.83203 2.73438 9.16016 2.73438C11.9492 2.73438 14.2188 5.00391 14.2188 7.79297V51.8848C12.8516 50.7227 11.0879 50.0117 9.16016 50.0117C6.6582 50.0117 4.38867 51.0234 2.73438 52.6504V9.16016C2.73438 6.98633 3.81445 5.07227 5.46875 3.91016Z" fill="#B69C7D"/>
<path d="M43.3809 10.1172C43.7363 10.1172 44.0918 9.9668 44.3516 9.7207C44.6113 9.47461 44.748 9.11914 44.748 8.75C44.748 8.38086 44.5977 8.03906 44.3516 7.7793C44.1055 7.51953 43.75 7.38281 43.3809 7.38281C43.0117 7.38281 42.6699 7.5332 42.4102 7.7793C42.1504 8.02539 42.0137 8.38086 42.0137 8.75C42.0137 9.11914 42.1641 9.46094 42.4102 9.7207C42.6563 9.98047 43.0117 10.1172 43.3809 10.1172Z" fill="#B69C7D"/>
<path d="M61.25 18.1836H21.9707C21.2188 18.1836 20.6035 18.7988 20.6035 19.5508C20.6035 20.3027 21.2188 20.918 21.9707 20.918H61.25C62.002 20.918 62.6172 20.3027 62.6172 19.5508C62.6172 18.7988 62.002 18.1836 61.25 18.1836Z" fill="#B69C7D"/>
<path d="M24.2949 25.8398H21.9707C21.2188 25.8398 20.6035 26.4551 20.6035 27.207C20.6035 27.959 21.2188 28.5742 21.9707 28.5742H24.2949C25.0469 28.5742 25.6621 27.959 25.6621 27.207C25.6621 26.4551 25.0469 25.8398 24.2949 25.8398Z" fill="#B69C7D"/>
<path d="M24.2949 33.4961H21.9707C21.2188 33.4961 20.6035 34.1113 20.6035 34.8633C20.6035 35.6152 21.2188 36.2305 21.9707 36.2305H24.2949C25.0469 36.2305 25.6621 35.6152 25.6621 34.8633C25.6621 34.1113 25.0469 33.4961 24.2949 33.4961Z" fill="#B69C7D"/>
<path d="M24.2949 41.1523H21.9707C21.2188 41.1523 20.6035 41.7676 20.6035 42.5195C20.6035 43.2715 21.2188 43.8867 21.9707 43.8867H24.2949C25.0469 43.8867 25.6621 43.2715 25.6621 42.5195C25.6621 41.7676 25.0469 41.1523 24.2949 41.1523Z" fill="#B69C7D"/>
<path d="M24.2949 48.8086H21.9707C21.2188 48.8086 20.6035 49.4238 20.6035 50.1758C20.6035 50.9277 21.2188 51.543 21.9707 51.543H24.2949C25.0469 51.543 25.6621 50.9277 25.6621 50.1758C25.6621 49.4238 25.0469 48.8086 24.2949 48.8086Z" fill="#B69C7D"/>
<path d="M24.2949 56.4648H21.9707C21.2188 56.4648 20.6035 57.0801 20.6035 57.832C20.6035 58.584 21.2188 59.1992 21.9707 59.1992H24.2949C25.0469 59.1992 25.6621 58.584 25.6621 57.832C25.6621 57.0801 25.0469 56.4648 24.2949 56.4648Z" fill="#B69C7D"/>
<path d="M63.0546 30.3379C63.7109 29.9551 63.9296 29.1211 63.5605 28.4648L62.4394 26.5234C62.1933 26.0996 61.7421 25.8398 61.25 25.8398C60.7578 25.8398 60.3066 26.0996 60.0605 26.5234L58.9394 28.4785C58.5566 29.1348 58.789 29.9688 59.4453 30.3516C59.582 30.4336 59.7324 30.4883 59.8828 30.5156V45.7871C59.7324 45.8145 59.582 45.8691 59.4316 45.9512C58.7754 46.334 58.5566 47.168 58.9257 47.8242L60.0468 49.7793C60.2929 50.2031 60.7441 50.4629 61.2363 50.4629C61.7285 50.4629 62.1796 50.2031 62.4257 49.7793L63.5468 47.8242C63.9296 47.168 63.6972 46.334 63.041 45.9512C62.9043 45.8691 62.7539 45.8145 62.6035 45.7871V30.502C62.7675 30.4746 62.9179 30.4199 63.0546 30.3379Z" fill="#B69C7D"/>
<path d="M52.8555 55.5216C52.1992 55.1388 51.3652 55.3712 50.9824 56.0274C50.9004 56.1642 50.8457 56.3145 50.8184 56.4649H35.5469C35.5195 56.3145 35.4648 56.1642 35.3828 56.0138C35 55.3575 34.166 55.1388 33.5098 55.5079L31.5547 56.629C31.1309 56.8751 30.8711 57.3263 30.8711 57.8185C30.8711 58.3106 31.1309 58.7618 31.5547 59.0079L33.5098 60.129C33.7285 60.2521 33.9609 60.3067 34.1934 60.3067C34.6719 60.3067 35.123 60.0606 35.3828 59.6231C35.4648 59.4864 35.5195 59.336 35.5469 59.1856H50.832C50.8594 59.336 50.9141 59.4864 50.9961 59.6231C51.2559 60.0606 51.707 60.3067 52.1856 60.3067C52.418 60.3067 52.6504 60.2521 52.8692 60.129L54.8242 59.0079C55.2481 58.7618 55.5078 58.3106 55.5078 57.8185C55.5078 57.3263 55.2481 56.8751 54.8242 56.629L52.8555 55.5216Z" fill="#B69C7D"/>
<path d="M55.4941 27.207C55.4941 26.4551 54.8789 25.8398 54.1269 25.8398H32.252C31.5 25.8398 30.8848 26.4551 30.8848 27.207V32.8809C30.8848 33.6328 31.5 34.248 32.252 34.248C33.0039 34.248 33.6191 33.6328 33.6191 32.8809V28.5742H38.3633V36.4219C38.3633 36.9688 38.6914 37.4746 39.1973 37.6797C39.7031 37.8984 40.291 37.7754 40.6875 37.3926L43.1758 34.9316L45.6641 37.3926C45.9238 37.6523 46.2656 37.7891 46.6211 37.7891C46.7988 37.7891 46.9766 37.748 47.1543 37.6797C47.6602 37.4609 47.9883 36.9688 47.9883 36.4219V28.5742H52.7324V47.7148H33.5918V43.3262C33.5918 42.5742 32.9766 41.959 32.2246 41.959C31.4727 41.959 30.8574 42.5742 30.8574 43.3262V49.082C30.8574 49.834 31.4727 50.4492 32.2246 50.4492H54.0996C54.8516 50.4492 55.4668 49.834 55.4668 49.082L55.4941 27.207ZM45.2676 33.1543L44.1465 32.0469C43.8867 31.7871 43.5312 31.6504 43.1895 31.6504C42.8477 31.6504 42.4922 31.7871 42.2324 32.0469L41.1113 33.1543V28.5742H45.2812V33.1543H45.2676Z" fill="#B69C7D"/>
<path d="M32.252 39.5117C32.6074 39.5117 32.9629 39.3613 33.2227 39.1152C33.4824 38.8555 33.6191 38.5137 33.6191 38.1445C33.6191 37.7754 33.4688 37.4336 33.2227 37.1738C32.9629 36.9141 32.6211 36.7773 32.252 36.7773C31.8965 36.7773 31.541 36.9277 31.2812 37.1738C31.0215 37.4199 30.8848 37.7754 30.8848 38.1445C30.8848 38.5137 31.0352 38.8555 31.2812 39.1152C31.5273 39.375 31.8828 39.5117 32.252 39.5117Z" fill="#B69C7D"/>
<path d="M49.6289 44.6934C50.3809 44.6934 50.9961 44.0781 50.9961 43.3262C50.9961 42.5742 50.3809 41.959 49.6289 41.959H45.5957C44.8438 41.959 44.2285 42.5742 44.2285 43.3262C44.2285 44.0781 44.8438 44.6934 45.5957 44.6934H49.6289Z" fill="#B69C7D"/>
<path d="M6.83594 26.9609C7.19141 26.9609 7.54688 26.8106 7.80664 26.5645C8.06641 26.3047 8.20312 25.9629 8.20312 25.5938C8.20312 25.2383 8.05274 24.8828 7.80664 24.623C7.54688 24.3633 7.20508 24.2266 6.83594 24.2266C6.48047 24.2266 6.125 24.377 5.86523 24.623C5.60547 24.8828 5.46875 25.2246 5.46875 25.5938C5.46875 25.9492 5.61914 26.3047 5.86523 26.5645C6.125 26.8106 6.48047 26.9609 6.83594 26.9609Z" fill="#B69C7D"/>
</svg>
