<svg width="77" height="70" viewBox="0 0 77 70" fill="none" xmlns="http://www.w3.org/2000/svg">
<path d="M70.458 29.6176C69.8865 29.6176 69.3451 29.6924 68.8187 29.827L49.9297 12.328V10.1743H67.1945C69.285 10.1743 70.9844 8.48419 70.9844 6.40525V2.38196C70.9844 1.4098 70.3979 0.557281 69.5106 0.18337C68.6082 -0.190541 67.5855 0.0188492 66.9088 0.706845L64.4725 3.14474H23.4609C22.8443 3.14474 22.333 3.65326 22.333 4.26648C22.333 4.87969 22.8443 5.38821 23.4609 5.38821H64.9537C65.2545 5.38821 65.5402 5.26856 65.7508 5.05917L68.5029 2.29223C68.518 2.27727 68.5631 2.2324 68.6383 2.26232C68.7135 2.29223 68.7135 2.35205 68.7135 2.38196V6.40525C68.7135 7.24281 68.0217 7.9308 67.1795 7.9308H9.95586C9.11367 7.9308 8.42188 7.24281 8.42188 6.40525V2.63623C8.42188 2.60631 8.42188 2.54649 8.51211 2.51657C8.60234 2.48666 8.63242 2.53153 8.6625 2.54649L10.8732 5.0143C11.0838 5.2536 11.3996 5.38821 11.7154 5.38821H18.9492C19.5658 5.38821 20.0771 4.87969 20.0771 4.26648C20.0771 3.65326 19.5658 3.14474 18.9492 3.14474H12.2117L10.3469 1.05084C9.68515 0.303022 8.64746 0.048762 7.71504 0.407716C6.78262 0.766671 6.18106 1.63414 6.18106 2.62127V6.39029C6.18106 8.46923 7.88047 10.1593 9.9709 10.1593H27.2207V12.1635L8.18125 29.827C7.65488 29.6924 7.11348 29.6176 6.54199 29.6176C2.93262 29.6176 0 32.5341 0 36.1237C0 39.7132 2.93262 42.6297 6.54199 42.6297C6.75254 42.6297 6.96309 42.6148 7.17363 42.5998L22.6037 61.6094L9.95586 62.8957C8.90313 63.0004 8.12109 63.8679 8.12109 64.9148V67.9659C8.12109 69.0877 9.03848 70 10.1664 70H66.984C68.1119 70 69.0293 69.0877 69.0293 67.9659V64.9148C69.0293 63.8679 68.2473 63.0004 67.1945 62.8957L54.4113 61.5945L69.8264 42.5998C70.0369 42.6148 70.2475 42.6297 70.458 42.6297C74.0674 42.6297 77 39.7132 77 36.1237C77 32.5341 74.0674 29.6176 70.458 29.6176ZM29.4766 10.1743H47.6738V13.7638C47.6738 14.0929 47.4031 14.3621 47.0723 14.3621H30.0781C29.7473 14.3621 29.4766 14.0929 29.4766 13.7638V10.1743ZM40.3047 50.7062H36.8457V47.3111L40.3047 46.5034V50.7062ZM44.1547 52.9497C44.6059 52.9497 44.9668 53.3086 44.9668 53.7573V57.287H32.1836V53.7573C32.1836 53.3086 32.5445 52.9497 32.9957 52.9497H44.1547ZM33.0859 45.8902C33.0107 45.9052 32.9355 45.9201 32.8604 45.9201C32.4092 45.9201 32.0182 45.6061 31.9129 45.1723C31.7926 44.6488 32.1084 44.1254 32.6348 44.0057L44.0645 41.3136C44.1396 41.2986 44.2148 41.2836 44.29 41.2836C44.7262 41.2836 45.1322 41.5828 45.2375 42.0315C45.3578 42.5549 45.042 43.0784 44.5156 43.1981L33.0859 45.8902ZM40.3047 39.8927L36.8457 40.7003V39.085L40.3047 38.2774V39.8927ZM33.0859 37.6642C33.0107 37.6791 32.9355 37.6941 32.8604 37.6941C32.4092 37.6941 32.0182 37.38 31.9129 36.9463C31.7926 36.4228 32.1084 35.8993 32.6348 35.7797L44.0645 33.0875C44.1396 33.0726 44.2148 33.0576 44.29 33.0576C44.7262 33.0576 45.1322 33.3567 45.2375 33.8054C45.3578 34.3289 45.042 34.8524 44.5156 34.972L33.0859 37.6642ZM40.3047 31.6667L36.8457 32.4743V30.859L40.3047 30.0514V31.6667ZM33.0859 29.4382C33.0107 29.4531 32.9355 29.4681 32.8604 29.4681C32.4092 29.4681 32.0182 29.154 31.9129 28.7202C31.7926 28.1968 32.1084 27.6733 32.6348 27.5536L44.0645 24.8615C44.1396 24.8465 44.2148 24.8316 44.29 24.8316C44.7262 24.8316 45.1322 25.1307 45.2375 25.5794C45.3578 26.1029 45.042 26.6263 44.5156 26.746L33.0859 29.4382ZM40.3047 23.4406L36.8457 24.2483V21.5412H40.3047V23.4406ZM33.9582 19.2977C33.5521 19.2977 33.2363 18.9686 33.2363 18.5798V16.6055H43.9141V18.5798C43.9141 18.9836 43.5832 19.2977 43.1922 19.2977H33.9582ZM27.5064 14.9902C27.732 15.4539 28.0629 15.8428 28.484 16.1269L11.4898 31.8761C11.159 31.5021 10.783 31.1581 10.377 30.859L27.5064 14.9902ZM6.54199 40.3863C4.18086 40.3863 2.25586 38.4718 2.25586 36.1237C2.25586 33.7755 4.18086 31.8611 6.54199 31.8611C8.90312 31.8611 10.8281 33.7755 10.8281 36.1237C10.8281 38.4718 8.90312 40.3863 6.54199 40.3863ZM25.7168 67.7565H10.377V65.1092L25.7168 63.5388V67.7565ZM25.7318 61.2804L25.2807 61.3253L9.51972 41.9118C9.9709 41.6875 10.392 41.4033 10.768 41.0743L26.0777 59.9343C25.9123 60.3531 25.792 60.8167 25.7318 61.2804ZM12.2418 39.3094C12.7832 38.3671 13.084 37.2753 13.084 36.1237C13.084 35.316 12.9336 34.5533 12.6629 33.8353L30.9805 16.8748V18.5798C30.9805 20.21 32.3189 21.5412 33.9582 21.5412H34.5898V24.7867L32.1084 25.37C30.3789 25.7738 29.2961 27.5088 29.7021 29.2437C30.048 30.6945 31.3414 31.7115 32.8453 31.7115C33.101 31.7115 33.3416 31.6816 33.5973 31.6218L34.5748 31.3825V32.9978L32.0934 33.5811C30.3639 33.9849 29.2811 35.7199 29.6871 37.4548C30.033 38.9056 31.3264 39.9226 32.8303 39.9226C33.0859 39.9226 33.3266 39.8927 33.5822 39.8329L34.5598 39.6085V41.2238L32.0783 41.8071C30.3488 42.2109 29.266 43.9459 29.6721 45.6808C30.018 47.1316 31.3113 48.1486 32.8152 48.1486C33.0709 48.1486 33.3115 48.1187 33.5672 48.0589L34.5447 47.8346V50.7062H32.9506C31.2512 50.7062 29.8826 52.0822 29.8826 53.7573V57.287C28.9953 57.3319 28.1682 57.646 27.4914 58.1395L12.2418 39.3094ZM49.1777 67.7565H27.9727V61.7141C27.9727 60.5176 28.9502 59.5305 30.1684 59.5305H46.982C48.1852 59.5305 49.1777 60.5027 49.1777 61.7141V67.7565ZM47.2227 57.302V53.7723C47.2227 52.0822 45.8391 50.7212 44.1547 50.7212H42.5605V45.965L45.042 45.3817C46.7715 44.9779 47.8543 43.2429 47.4482 41.508C47.0422 39.788 45.2977 38.7111 43.5531 39.115L42.5756 39.3393V37.739L45.057 37.1557C46.7865 36.7518 47.8693 35.0169 47.4633 33.282C47.0572 31.562 45.3127 30.4851 43.5682 30.8889L42.5906 31.1282V29.5129L45.0721 28.9296C46.8016 28.5258 47.8844 26.7909 47.4783 25.0559C47.0723 23.3359 45.3277 22.2591 43.5832 22.6629L42.6057 22.9022V21.5412H43.2373C44.8766 21.5412 46.215 20.21 46.215 18.5798V17.0243L55.7047 25.8187C55.9152 26.0131 56.201 26.1178 56.4717 26.1178C56.7725 26.1178 57.0732 25.9982 57.2988 25.7589C57.7199 25.3102 57.7049 24.5923 57.2387 24.1735L48.5762 16.1868C49.0123 15.9175 49.3582 15.5436 49.5988 15.0949L66.623 30.859C66.217 31.1581 65.841 31.4872 65.5102 31.8761L60.5021 27.2396C60.051 26.8208 59.3291 26.8357 58.908 27.2994C58.4869 27.7481 58.5019 28.466 58.9682 28.8848L64.3371 33.8503C64.0664 34.5533 63.916 35.316 63.916 36.1237C63.916 37.2753 64.2168 38.3671 64.7582 39.3094L49.5236 58.0797C48.8619 57.631 48.0799 57.3469 47.2227 57.302ZM66.7734 65.1092V67.7565H51.4336V63.5388L66.7734 65.1092ZM51.7344 61.3103L51.4186 61.2804C51.3734 60.7569 51.223 60.2634 51.0125 59.8147L66.217 41.0743C66.593 41.4033 67.0141 41.6725 67.4652 41.9118L51.7344 61.3103ZM70.458 40.3863C68.0969 40.3863 66.1719 38.4718 66.1719 36.1237C66.1719 33.7755 68.0969 31.8611 70.458 31.8611C72.8191 31.8611 74.7441 33.7755 74.7441 36.1237C74.7441 38.4718 72.8191 40.3863 70.458 40.3863Z" fill="#B69C7D"/>
</svg>
