<svg width="73" height="73" viewBox="0 0 73 73" fill="none" xmlns="http://www.w3.org/2000/svg">
<g clip-path="url(#clip0)">
<path d="M53.4765 20.2361C53.2115 19.9709 52.8436 19.8184 52.4686 19.8184C52.0936 19.8184 51.7258 19.9709 51.4606 20.2361C51.1954 20.5013 51.0428 20.8677 51.0428 21.2441C51.0428 21.6191 51.1953 21.987 51.4606 22.2522C51.7259 22.5174 52.0936 22.6699 52.4686 22.6699C52.8436 22.6699 53.2115 22.5174 53.4765 22.2522C53.7417 21.987 53.8944 21.6191 53.8944 21.2441C53.8944 20.8692 53.7418 20.5013 53.4765 20.2361Z" fill="#B69C7D"/>
<path d="M21.3867 40.207H9.98047C9.19315 40.207 8.55469 40.8454 8.55469 41.6328V53.039C8.55469 53.8265 9.19315 54.4648 9.98047 54.4648H21.3867C22.174 54.4648 22.8125 53.8265 22.8125 53.039V41.6328C22.8125 40.8454 22.1742 40.207 21.3867 40.207ZM19.9609 51.6133H11.4062V43.0586H19.9609V51.6133Z" fill="#B69C7D"/>
<path d="M72.1198 29.9074C71.5869 29.6866 70.9736 29.8089 70.5659 30.2164L56.0376 44.7448C56.0374 44.7451 56.0371 44.7452 56.0368 44.7455C56.0366 44.7458 56.0364 44.746 56.0363 44.7462L39.1003 61.6822C39.1 61.6825 39.0999 61.6826 39.0996 61.6829C39.0993 61.6832 39.0992 61.6834 39.0989 61.6836L30.2164 70.5661C29.8088 70.9739 29.6867 71.5872 29.9073 72.1199C30.128 72.6527 30.6479 73 31.2246 73H71.5741C72.3614 73 72.9999 72.3617 72.9999 71.5743V31.2247C72.9999 30.6481 72.6526 30.1282 72.1198 29.9074ZM70.1483 70.1485H34.6668L40.1078 64.7076L41.4688 66.0686C41.7473 66.3471 42.1121 66.4862 42.477 66.4862C42.8418 66.4862 43.2067 66.3471 43.4851 66.0686C44.0419 65.5119 44.0419 64.6091 43.4851 64.0522L42.1241 62.6911L45.7536 59.0616L47.1145 60.4225C47.3929 60.701 47.7578 60.8402 48.1226 60.8402C48.4875 60.8402 48.8523 60.7009 49.1308 60.4225C49.6876 59.8658 49.6876 58.963 49.1308 58.4062L47.7697 57.0452L51.3992 53.4157L52.7603 54.7767C53.0387 55.0552 53.4036 55.1944 53.7684 55.1944C54.1333 55.1944 54.4981 55.0552 54.7766 54.7767C55.3334 54.22 55.3334 53.3172 54.7766 52.7603L53.4155 51.3992L57.0449 47.7699L58.4059 49.1309C58.6844 49.4094 59.0492 49.5486 59.4141 49.5486C59.7789 49.5486 60.1438 49.4094 60.4222 49.1309C60.979 48.5742 60.979 47.6714 60.4222 47.1145L59.0612 45.7534L62.6907 42.1239L64.0516 43.4849C64.33 43.7633 64.6949 43.9025 65.0597 43.9025C65.4246 43.9025 65.7895 43.7632 66.0679 43.4849C66.6247 42.9281 66.6247 42.0253 66.0679 41.4685L64.7069 40.1075L70.1483 34.6668V70.1485Z" fill="#B69C7D"/>
<path d="M64.9909 47.1182C64.458 46.8973 63.8447 47.0195 63.437 47.4271L47.4271 63.4372C47.0195 63.845 46.8973 64.4582 47.118 64.991C47.3387 65.5238 47.8586 65.8711 48.4353 65.8711H64.4452C65.2325 65.8711 65.871 65.2328 65.871 64.4454V48.4354C65.871 47.8589 65.5237 47.3389 64.9909 47.1182ZM63.0194 63.0196H51.8775L63.0194 51.8776V63.0196Z" fill="#B69C7D"/>
<path d="M66.0222 21.2815C65.6297 20.8891 65.0454 20.76 64.5237 20.9509L54.7883 24.516C54.5937 24.5873 54.4171 24.7001 54.2704 24.8467L51.533 27.584L33.6586 9.70948C33.3911 9.44214 33.0285 9.29186 32.6504 9.29186C32.2723 9.29186 31.9096 9.44214 31.6423 9.70948L10.1268 31.2249H4.86814L32.6504 3.44247L47.8961 18.6882C48.453 19.2449 49.3556 19.2449 49.9126 18.6882C50.4694 18.1314 50.4694 17.2286 49.9126 16.6717L33.6587 0.417819C33.1018 -0.138947 32.1993 -0.138947 31.6423 0.417819L0.417711 31.6424C0.0100814 32.0501 -0.111965 32.6634 0.108603 33.1962C0.329313 33.7291 0.849152 34.0765 1.42588 34.0765H2.85166V71.5744C2.85166 72.3619 3.49012 73.0002 4.27744 73.0002H26.9453C27.7326 73.0002 28.3711 72.3619 28.3711 71.5744C28.3711 70.787 27.7326 70.1487 26.9453 70.1487H5.70321V34.0765H10.7174C11.0955 34.0765 11.4581 33.9262 11.7256 33.6589L32.6504 12.734L49.5165 29.6002L28.3731 50.7438V37.9261H38.3535C39.1409 37.9261 39.7793 37.2877 39.7793 36.5003C39.7793 35.7128 39.1409 35.0745 38.3535 35.0745H26.9473C26.16 35.0745 25.5215 35.7128 25.5215 36.5003V53.0393C25.5215 53.2057 25.5515 53.3645 25.6038 53.513L24.3264 54.7903C22.0694 57.0473 22.0694 60.7198 24.3264 62.9768C25.4551 64.1055 26.9372 64.6698 28.4197 64.6697C29.902 64.6697 31.3846 64.1054 32.513 62.977L44.5369 50.9531C45.0936 50.3963 45.0936 49.4935 44.5369 48.9368C43.9801 48.38 43.0776 48.38 42.5204 48.9368L33.4108 58.0464L29.2571 53.8926L55.307 27.8427L59.4608 31.9964L49.5067 41.9506C48.9499 42.5074 48.9499 43.4102 49.5067 43.9669C50.0636 44.5237 50.9661 44.5237 51.5232 43.9669L62.4569 33.0332C62.6033 32.8867 62.7162 32.7099 62.7874 32.5154L66.3527 22.78C66.5436 22.2588 66.4147 21.674 66.0222 21.2815ZM31.3946 60.0626L30.4966 60.9605C29.9419 61.5153 29.2045 61.8208 28.4199 61.8208C27.6353 61.8208 26.8977 61.5153 26.3431 60.9605C25.7882 60.4057 25.4828 59.6682 25.4828 58.8837C25.4828 58.0993 25.788 57.3616 26.3429 56.8068L27.2409 55.9088L31.3946 60.0626ZM60.8931 29.3956L57.9078 26.4103L62.6183 24.6853L60.8931 29.3956Z" fill="#B69C7D"/>
<path d="M48.0044 45.4683C47.7393 45.2031 47.3715 45.0505 46.9965 45.0505C46.6215 45.0505 46.2537 45.2031 45.9885 45.4683C45.7233 45.7349 45.5707 46.1013 45.5707 46.4763C45.5707 46.8527 45.7232 47.2191 45.9885 47.4858C46.2537 47.751 46.6201 47.9021 46.9965 47.9021C47.3715 47.9021 47.7393 47.751 48.0044 47.4858C48.2696 47.2191 48.4223 46.8513 48.4223 46.4763C48.4223 46.1013 48.2697 45.7349 48.0044 45.4683Z" fill="#B69C7D"/>
<path d="M32.6503 21.5293C29.6629 21.5293 27.2324 23.9598 27.2324 26.9473C27.2324 29.9347 29.6629 32.3652 32.6503 32.3652C35.6378 32.3652 38.0683 29.9347 38.0683 26.9473C38.0683 23.9598 35.6378 21.5293 32.6503 21.5293ZM32.6503 29.5137C31.2352 29.5137 30.0839 28.3625 30.0839 26.9473C30.0839 25.5322 31.2352 24.3809 32.6503 24.3809C34.0654 24.3809 35.2167 25.5322 35.2167 26.9473C35.2167 28.3623 34.0654 29.5137 32.6503 29.5137Z" fill="#B69C7D"/>
</g>
<defs>
<clipPath id="clip0">
<rect width="73" height="73" fill="white"/>
</clipPath>
</defs>
</svg>
