<svg width="80" height="74" viewBox="0 0 80 74" fill="none" xmlns="http://www.w3.org/2000/svg">
<g clip-path="url(#clip0)">
<path d="M49.0323 74.9714L49.0323 57.4239C49.0323 56.7346 48.4516 56.1705 47.742 56.1705L46.4516 56.1705L46.4516 7.28837C46.4516 2.44716 42.4033 -1.48535 37.4194 -1.48535L24.5162 -1.48535C23.8065 -1.48535 23.2258 -0.921328 23.2258 -0.231964L23.2258 3.5282C23.2258 3.85722 23.3549 4.18623 23.5968 4.42124L25.2581 6.03498L23.5968 7.64872C23.0968 8.13441 23.0968 8.93344 23.5968 9.41913L25.2581 11.0329L23.5968 12.6466C23.0968 13.1323 23.0968 13.9313 23.5968 14.417L25.2581 16.0308L23.5968 17.6445C23.0968 18.1302 23.0968 18.9292 23.5968 19.4149L25.2581 21.0286L23.5968 22.6424C23.0968 23.1281 23.0968 23.9271 23.5968 24.4128L25.2581 26.0265L23.5968 27.6403C23.0968 28.126 23.0968 28.925 23.5968 29.4107L25.2581 31.0244L23.5968 32.6382C23.0968 33.1238 23.0968 33.9229 23.5968 34.4086L25.2581 36.0223L23.5968 37.6361C23.0968 38.1217 23.0968 38.9208 23.5968 39.4065L25.2581 41.0202L23.5968 42.6339C23.0968 43.1196 23.0968 43.9187 23.5968 44.4044L25.2581 46.0181L23.5968 47.6318C23.0968 48.1175 23.0968 48.9166 23.5968 49.4022L25.2581 51.016L23.5968 52.6297C23.3549 52.8647 23.2258 53.1781 23.2258 53.5228L23.2258 56.0295L21.9355 56.0295C21.2258 56.0295 20.6452 56.5936 20.6452 57.2829L20.6452 74.8304C20.6452 75.5197 21.2258 76.0838 21.9355 76.0838L27.0968 76.0838C27.8065 76.0838 28.3871 75.5197 28.3871 74.8304L28.3871 71.0702L41.2903 71.0702L41.2903 74.8304C41.2903 75.5197 41.871 76.0838 42.5807 76.0838L47.742 76.0838C48.4516 76.2248 49.0323 75.6607 49.0323 74.9714ZM27.0968 56.1705L25.8065 56.1705L25.8065 54.1808L28.0162 52.0344C28.5162 51.5487 28.5162 50.7496 28.0162 50.2639L26.3387 48.6502L28 47.0365C28.5 46.5508 28.5 45.7517 28 45.2661L26.3387 43.6367L28 42.0229C28.5 41.5372 28.5 40.7382 28 40.2525L26.3387 38.6231L28 37.0094C28.5 36.5237 28.5 35.7246 28 35.2389L26.3387 33.6095L28 31.9958C28.5 31.5101 28.5 30.7111 28 30.2254L26.3387 28.596L28 26.9822C28.5 26.4966 28.5 25.6975 28 25.2118L26.3387 23.5824L28 21.9687C28.5 21.483 28.5 20.684 28 20.1983L26.3387 18.5689L28 16.9551C28.5 16.4694 28.5 15.6704 28 15.1847L26.3387 13.5553L28 11.9416C28.5 11.4559 28.5 10.6569 28 10.1712L26.3387 8.54176L28 6.92802C28.5 6.44233 28.5 5.6433 28 5.15761L25.8065 3.01118L25.8065 1.02143L37.4194 1.02143C40.9839 1.02143 43.871 3.82588 43.871 7.28837L43.871 51.157L41.2904 51.157L41.2904 13.5553L38.7097 13.5553L38.7097 51.157L30.9678 51.157L30.9678 53.6638L43.871 53.6638L43.871 56.1705L42.5807 56.1705C41.871 56.1705 41.2903 56.7346 41.2903 57.4239L41.2903 61.1841L28.3871 61.1841L28.3871 57.4239C28.3871 56.7346 27.8065 56.1705 27.0968 56.1705ZM43.871 73.718L43.871 69.9578C43.871 69.2685 43.2903 68.7044 42.5807 68.7044L27.0968 68.7044C26.3871 68.7044 25.8065 69.2685 25.8065 69.9578L25.8065 73.718L23.2258 73.718L23.2258 58.6773L25.8065 58.6773L25.8065 62.4375C25.8065 63.1269 26.3871 63.6909 27.0968 63.6909L42.5807 63.6909C43.2903 63.6909 43.871 63.1269 43.871 62.4375L43.871 58.6773L46.4516 58.6773L46.4516 73.718L43.871 73.718Z" fill="#B69C7D"/>
<path d="M41.2903 6.31258C41.2903 4.34322 39.5484 2.73193 37.4194 2.73193C35.2903 2.73193 33.5484 4.34322 33.5484 6.31258C33.5484 8.28193 35.2903 9.89322 37.4194 9.89322C39.5484 9.89322 41.2903 8.28193 41.2903 6.31258ZM36.1291 6.31258C36.1291 5.65613 36.7097 5.11903 37.4194 5.11903C38.1291 5.11903 38.7097 5.65613 38.7097 6.31258C38.7097 6.96903 38.1291 7.50612 37.4194 7.50612C36.7097 7.50612 36.1291 6.96903 36.1291 6.31258Z" fill="#B69C7D"/>
<path d="M54.1935 0.046939L54.1935 3.80726L52.9032 3.80726C52.1935 3.80726 51.6129 4.37131 51.6129 5.0607L51.6129 10.0745C51.6129 10.7638 52.1935 11.3279 52.9032 11.3279L54.1935 11.3279L54.1935 36.3967L52.9032 36.3967C52.1935 36.3967 51.6129 36.9607 51.6129 37.6501L51.6129 42.6639C51.6129 43.3533 52.1935 43.9173 52.9032 43.9173L54.1935 43.9173L54.1935 50.1845C54.1935 50.8739 54.7742 51.438 55.4839 51.438L56.7742 51.438L56.7742 53.9448L55.4839 53.9448C54.7742 53.9448 54.1935 54.5089 54.1935 55.1983L54.1935 70.2396C54.1935 72.3077 55.9355 73.9999 58.0645 73.9999C60.1935 73.9999 61.9355 72.3077 61.9355 70.2396L61.9355 55.1983C61.9355 54.5089 61.3548 53.9448 60.6452 53.9448L59.3548 53.9448L59.3548 51.438L60.6452 51.438C61.3548 51.438 61.9355 50.8739 61.9355 50.1845L61.9355 43.9173L78.7097 43.9173C79.4194 43.9173 80 43.3533 80 42.6639L80 5.0607C80 4.37131 79.4194 3.80726 78.7097 3.80726L61.9355 3.80726L61.9355 0.0469393C61.9355 -2.02124 60.1935 -3.71338 58.0645 -3.71338C55.9355 -3.71338 54.1935 -2.02124 54.1935 0.046939ZM59.3548 56.4517L59.3548 70.2396C59.3548 70.929 58.7742 71.493 58.0645 71.493C57.3548 71.493 56.7742 70.929 56.7742 70.2396L56.7742 56.4517L59.3548 56.4517ZM59.3548 48.9311L56.7742 48.9311L56.7742 43.9173L59.3548 43.9173L59.3548 48.9311ZM61.9355 36.3967L61.9355 11.3279L72.2581 11.3279L72.2581 36.3967L61.9355 36.3967ZM56.7742 11.3279L59.3548 11.3279L59.3548 36.3967L56.7742 36.3967L56.7742 11.3279ZM77.4194 6.31414L77.4194 41.4104L54.1935 41.4104L54.1935 38.9036L73.5484 38.9036C74.2581 38.9036 74.8387 38.3395 74.8387 37.6501L74.8387 10.0745C74.8387 9.38507 74.2581 8.82102 73.5484 8.82102L54.1935 8.82102L54.1935 6.31414L77.4194 6.31414ZM59.3548 0.0469392L59.3548 3.80726L56.7742 3.80726L56.7742 0.0469391C56.7742 -0.642453 57.3548 -1.2065 58.0645 -1.2065C58.7742 -1.2065 59.3548 -0.642453 59.3548 0.0469392Z" fill="#B69C7D"/>
</g>
<defs>
<clipPath id="clip0">
<rect width="74" height="80" fill="white" transform="translate(80) rotate(90)"/>
</clipPath>
</defs>
</svg>
