<svg width="22" height="22" viewBox="0 0 22 22" fill="none" xmlns="http://www.w3.org/2000/svg">
<path d="M3.26804 0H19.2419C20.7588 0 22 1.12689 22 2.7674V18.7951C22 20.4356 20.7588 21.5625 19.2419 21.5625H3.26804C1.7506 21.5625 0.509644 20.4356 0.509644 18.7951V2.7674C0.509644 1.12689 1.7506 0 3.26804 0ZM16.1646 2.39569C15.6324 2.39569 15.1975 2.83227 15.1975 3.36649V5.69C15.1975 6.224 15.6324 6.66081 16.1646 6.66081H18.5936C19.1258 6.66081 19.5611 6.224 19.5611 5.69V3.36649C19.5611 2.83227 19.1258 2.39569 18.5936 2.39569H16.1646ZM19.5713 9.1187H17.6798C17.8588 9.70495 17.9557 10.326 17.9557 10.9684C17.9557 14.555 14.9645 17.4623 11.2754 17.4623C7.58646 17.4623 4.59572 14.555 4.59572 10.9684C4.59572 10.3255 4.69236 9.70473 4.87153 9.1187H2.89778V18.227C2.89778 18.6983 3.28216 19.0842 3.75216 19.0842H18.7174C19.1874 19.0842 19.5717 18.6986 19.5717 18.227V9.1187H19.5713ZM11.2751 6.53838C8.89163 6.53838 6.95914 8.41689 6.95914 10.7344C6.95914 13.052 8.89163 14.9305 11.2751 14.9305C13.6589 14.9305 15.5916 13.052 15.5916 10.7344C15.5916 8.41689 13.6591 6.53838 11.2751 6.53838Z" fill="#B69C7D"/>
</svg>
