<svg width="52" height="52" viewBox="0 0 52 52" fill="none" xmlns="http://www.w3.org/2000/svg">
<path d="M51.8357 31.5592L29.3025 0.359227C29.1396 0.133555 28.8782 -0.000101505 28.5999 5.78397e-08H23.4C23.1217 -0.000101505 22.8603 0.133555 22.6974 0.359227L0.164226 31.5592C0.0574843 31.7069 8.46387e-08 31.8845 8.46387e-08 32.0666V51.1333C-0.000101478 51.3631 0.091203 51.5836 0.253804 51.7462C0.416304 51.9087 0.636796 52 0.866733 52H51.1333C51.3631 52.0001 51.5836 51.9088 51.7462 51.7462C51.9087 51.5837 52 51.3632 52 51.1333V32.0666C51.9999 31.8845 51.9424 31.7069 51.8357 31.5592ZM1.73336 36.4H3.46673V46.8H1.73336V36.4ZM50.2665 50.2666H1.73336V48.5333H50.2666V50.2666H50.2665ZM22.681 46.8H19.2118L5.19999 37.6637V36.4H6.73714L22.681 46.8ZM9.90872 36.4H23.4V45.2004L9.90872 36.4ZM16.0382 46.8H5.19999V39.7331L16.0382 46.8ZM25.1333 46.8V36.4H26.8667V46.8H25.1333ZM32.7882 46.8H29.319L45.2628 36.4H46.7999V37.6637L32.7882 46.8ZM46.7999 39.7331V46.8H35.9617L46.7999 39.7331ZM28.5999 45.2004V36.4H42.0912L28.5999 45.2004ZM50.2665 46.8H48.5332V36.4H50.2665V46.8ZM50.2665 34.6666H1.73336V32.3467L23.8435 1.73327H28.1565L50.2666 32.3467V34.6666H50.2665Z" fill="#B69C7D"/>
<path d="M15.2851 18.1258C15.2679 18.1112 15.2589 18.0908 15.2402 18.0773C15.2133 18.0631 15.1856 18.0505 15.1572 18.0395C15.0557 17.9785 14.9415 17.9415 14.8236 17.9314C14.7939 17.9235 14.7637 17.9175 14.7332 17.9131C14.71 17.9131 14.6906 17.9245 14.6678 17.9263C14.441 17.9492 14.2312 18.0565 14.0798 18.2268C14.065 18.2443 14.0442 18.2534 14.0307 18.2723L4.43655 31.5584C4.24581 31.8222 4.2191 32.1706 4.36728 32.4604C4.51546 32.7503 4.81355 32.9326 5.13905 32.9325H14.7333C14.9632 32.9326 15.1837 32.8413 15.3463 32.6786C15.5088 32.5161 15.6001 32.2957 15.6001 32.0657V18.7798C15.6001 18.7561 15.5884 18.7361 15.5866 18.7129C15.5632 18.4862 15.4557 18.2767 15.2851 18.1258ZM13.8666 31.1992H6.83433L13.8667 21.4603V31.1992H13.8666Z" fill="#B69C7D"/>
<path d="M27.7333 4.71289C27.7034 4.71726 27.6736 4.72325 27.6443 4.73087C27.5266 4.74072 27.4126 4.77738 27.3112 4.83802C27.282 4.84939 27.2533 4.86239 27.2255 4.87702C27.2064 4.89083 27.1972 4.91165 27.1796 4.92678C27.01 5.0778 26.9032 5.28702 26.8801 5.513C26.8783 5.53616 26.8667 5.55596 26.8667 5.57952V32.065C26.8666 32.2948 26.9579 32.5153 27.1205 32.6779C27.2831 32.8404 27.5035 32.9317 27.7334 32.9317H33.8C34.0298 32.9318 34.2503 32.8405 34.4129 32.6779C34.5754 32.5154 34.6667 32.2949 34.6667 32.065V13.9776C34.6623 13.9465 34.6561 13.9158 34.6481 13.8854C34.6379 13.7682 34.6012 13.655 34.5406 13.5541C34.5296 13.5255 34.5169 13.4974 34.5026 13.4702L28.4359 5.07222C28.4224 5.05333 28.4017 5.04419 28.3869 5.02672C28.348 4.98223 28.3045 4.94202 28.2573 4.90667C28.1237 4.80501 27.9646 4.74245 27.7976 4.72589C27.7752 4.72416 27.7561 4.71289 27.7333 4.71289ZM28.6 8.25915L32.9333 14.2577V31.1984H28.6V8.25915Z" fill="#B69C7D"/>
<path d="M25.085 5.34045C25.0364 5.18099 24.9448 5.03789 24.8204 4.92688C24.8028 4.91185 24.7935 4.89093 24.7745 4.87712C24.7468 4.86259 24.7184 4.8497 24.6892 4.83842C24.5877 4.77769 24.4736 4.74092 24.3558 4.73087C24.3265 4.72325 24.2967 4.71726 24.2666 4.71289C24.2438 4.71289 24.2248 4.72406 24.2024 4.72589C23.9753 4.74844 23.765 4.85579 23.6135 5.02641C23.5987 5.04398 23.5779 5.05313 23.5642 5.07222L17.4976 13.4702C17.4833 13.4975 17.4705 13.5256 17.4594 13.5543C17.3988 13.6551 17.3621 13.7684 17.3521 13.8855C17.3441 13.9158 17.3379 13.9465 17.3335 13.9775V32.065C17.3334 32.2948 17.4247 32.5153 17.5873 32.6779C17.7498 32.8404 17.9703 32.9317 18.2002 32.9317H24.2668C24.4967 32.9318 24.7172 32.8405 24.8798 32.6779C25.0423 32.5154 25.1336 32.2949 25.1336 32.065V5.57962C25.1336 5.55596 25.1219 5.53616 25.1202 5.513C25.1143 5.4545 25.1026 5.39661 25.085 5.34045ZM23.3999 31.1984H19.0666V14.2576L23.3999 8.25915V31.1984Z" fill="#B69C7D"/>
<path d="M37.2665 32.9326H46.8608C47.1863 32.9327 47.4844 32.7504 47.6326 32.4605C47.7808 32.1706 47.754 31.8223 47.5633 31.5585L37.969 18.2724C37.9555 18.2536 37.9348 18.2446 37.9202 18.2272C37.7687 18.0568 37.5587 17.9494 37.3318 17.9263C37.3091 17.9245 37.2897 17.9131 37.2665 17.9131C37.2362 17.9175 37.2061 17.9235 37.1764 17.9313C37.0585 17.9412 36.9446 17.9781 36.8432 18.0391C36.8147 18.0502 36.7868 18.063 36.7596 18.0772C36.741 18.0906 36.7321 18.111 36.7148 18.1257C36.5443 18.2766 36.4367 18.4862 36.4134 18.7128C36.4115 18.736 36.3999 18.7561 36.3999 18.7797V32.0658C36.3998 32.2957 36.4911 32.5161 36.6537 32.6788C36.8162 32.8413 37.0367 32.9326 37.2665 32.9326ZM38.1333 21.4603L45.1656 31.1992H38.1333V21.4603Z" fill="#B69C7D"/>
</svg>
