<svg width="93" height="62" viewBox="0 0 93 62" fill="none" xmlns="http://www.w3.org/2000/svg">
<path d="M63.1449 11.2716C63.1449 28.1464 54.9901 42.2357 44.0901 45.7479H44.0497H44.0093C41.143 44.8194 38.519 43.2046 36.1371 40.9842C33.8764 38.885 31.8982 36.2609 30.243 33.1927C30.3642 33.1927 30.4853 33.1927 30.6064 33.1927C34.4819 33.1927 38.2768 32.4257 41.8293 31.0935L43.2827 34.4038C43.4038 34.7268 43.7268 34.8883 44.0497 34.8883C44.3727 34.8883 44.6956 34.6864 44.8167 34.4038L47.4005 28.3887C54.8286 24.0287 60.6823 17.1657 63.1449 9.85864C63.1449 9.97975 63.1449 10.1009 63.1449 10.1816C63.1449 10.5853 63.1449 10.9486 63.1449 11.2716Z" fill="white"/>
<path d="M63.0642 9.8586C59.996 14.9856 55.3534 19.5475 49.8227 22.7771L52.8504 15.8334C52.9715 15.5912 52.9312 15.349 52.8504 15.1471C52.7293 14.8645 52.4467 14.6627 52.1238 14.6627H50.3475C50.0245 14.6627 49.7015 14.8645 49.5804 15.1875L49.1767 16.1967L45.5838 24.9167C44.736 25.2801 43.8478 25.603 43.0001 25.8856L39.3264 17.0042L38.5997 15.2279C38.4786 14.9049 38.1556 14.703 37.8327 14.703H36.0564C35.4508 14.703 35.0471 15.3086 35.2893 15.8738L35.6527 16.6812L40.0127 26.7334C37.8327 27.2179 35.6123 27.5005 33.3516 27.5005C31.1715 27.5005 29.2338 27.1775 27.4575 26.5316C26.206 22.6964 25.3986 18.4575 25.1564 14.0167C25.116 13.1286 25.0756 12.2405 25.0756 11.3523C25.0756 10.8679 25.0756 10.3834 25.116 9.89897C25.9638 10.0201 26.8115 10.1008 27.6997 10.1008C34.0378 10.1008 39.8512 6.5886 44.1708 0.775269C48.4904 6.54823 54.3038 10.1008 60.6419 10.1008C61.4897 10.1008 62.2971 10.0201 63.1045 9.93934C63.0238 9.8586 63.0642 9.8586 63.0642 9.8586Z" fill="white"/>
<g opacity="0.2">
<path opacity="0.2" d="M63.1449 10.222C62.6605 22.2927 50.186 36.3416 36.1371 40.9842C33.8764 38.885 31.8982 36.2609 30.243 33.1927C30.3642 33.1927 30.4853 33.1927 30.6064 33.1927C34.4819 33.1927 38.2768 32.4257 41.8293 31.0935L43.2827 34.4038C43.4038 34.7268 43.7268 34.8883 44.0497 34.8883C44.3727 34.8883 44.6956 34.6864 44.8167 34.4038L47.4005 28.3887C54.8286 24.0287 60.6823 17.1657 63.1449 9.85864C63.1449 9.97975 63.1449 10.1009 63.1449 10.222Z" fill="white"/>
</g>
<path d="M45.5434 24.9167L44.0497 28.5501L42.9597 25.8856C43.8075 25.5627 44.6956 25.2397 45.5434 24.9167Z" fill="white"/>
<g opacity="0.2">
<path opacity="0.2" d="M39.9319 26.6931C37.7519 27.1776 35.5316 27.4602 33.2708 27.4602C31.0908 27.4602 29.153 27.1372 27.3767 26.4913C26.1253 22.6561 25.3178 18.4172 25.0756 13.9764C28.3456 15.2683 31.8982 16.1968 35.5719 16.6409L39.9319 26.6931Z" fill="white"/>
</g>
<g opacity="0.2">
<path opacity="0.2" d="M49.1364 16.1968L45.5434 24.9168C44.6956 25.2801 43.8075 25.6031 42.9597 25.8857L39.286 17.0042C40.5779 17.0849 41.8697 17.0849 43.1616 17.0042C45.1397 16.8831 47.1582 16.6409 49.1364 16.1968Z" fill="white"/>
</g>
<g opacity="0.2">
<path opacity="0.2" d="M63.0642 9.85864C59.996 14.9857 55.3534 19.5475 49.8227 22.7772L52.8505 15.8335C52.9716 15.5912 52.9312 15.349 52.8505 15.1472C56.4838 13.8957 59.9153 12.1194 63.0238 9.89902C63.0238 9.85865 63.0642 9.85864 63.0642 9.85864Z" fill="white"/>
</g>
<path d="M7.15117 61.8959H6.18228L0.853394 49.9463H4.32524L6.7071 55.7192L9.04857 49.9463H12.5204L7.15117 61.8959Z" fill="white"/>
<path d="M21.8056 52.7318H16.719V54.3467H20.3523V56.89H16.719V58.9489H22.0075V61.6941H13.6508V49.9463H21.8056V52.7318Z" fill="white"/>
<path d="M26.9731 55.2753L30.8486 49.9464H34.4012L30.3642 55.5175L35.0471 61.6538H31.4138L26.9731 55.8001V61.6538H23.9049V49.906H26.9731V55.2753Z" fill="white"/>
<path d="M47.2793 55.5982L49.4997 49.9464H52.9311L48.0867 61.896H47.1178L44.1304 55.7597L41.143 61.896H40.1741L35.3297 49.9464H38.7611L40.9815 55.5982L43.6863 49.7445H44.6552L47.2793 55.5982Z" fill="white"/>
<path d="M59.6731 49.7445C60.5612 49.7445 61.3686 49.906 62.1357 50.1886C62.9027 50.5115 63.589 50.9152 64.1542 51.4804C64.7194 52.0456 65.1634 52.6512 65.5268 53.4182C65.8497 54.1449 66.0112 54.9523 66.0112 55.8404C66.0112 56.6882 65.8497 57.4956 65.5268 58.2627C65.2038 58.9893 64.7597 59.6352 64.1542 60.2004C63.589 60.7656 62.9027 61.1693 62.1357 61.4923C61.3686 61.8152 60.5612 61.9364 59.6731 61.9364C58.7849 61.9364 57.9775 61.7749 57.2105 61.4923C56.4435 61.2097 55.7975 60.7656 55.192 60.2004C54.6268 59.6756 54.1827 59.0297 53.8597 58.2627C53.5368 57.536 53.3753 56.7286 53.3753 55.8404C53.3753 54.9927 53.5368 54.1852 53.8597 53.4182C54.1827 52.6915 54.6268 52.0456 55.192 51.4804C55.7572 50.9556 56.4435 50.5115 57.2105 50.1886C57.9775 49.906 58.7849 49.7445 59.6731 49.7445ZM59.6731 52.5704C59.1886 52.5704 58.7849 52.6512 58.3812 52.8127C57.9775 52.9741 57.6546 53.176 57.372 53.4989C57.0894 53.7815 56.8875 54.1449 56.726 54.5486C56.5646 54.9523 56.4838 55.3964 56.4838 55.8808C56.4838 56.3652 56.5646 56.8093 56.726 57.213C56.8875 57.6167 57.0894 57.9397 57.372 58.2627C57.6546 58.5452 57.9775 58.7471 58.3812 58.9086C58.7849 59.0701 59.1886 59.1508 59.6731 59.1508C60.1171 59.1508 60.5612 59.0701 60.9246 58.9086C61.3283 58.7471 61.6512 58.5452 61.9338 58.2627C62.2164 57.9801 62.4586 57.6167 62.6201 57.213C62.7816 56.8093 62.8623 56.3652 62.8623 55.8808C62.8623 55.3964 62.7816 54.9523 62.6201 54.5486C62.4586 54.1449 62.2164 53.8219 61.9338 53.4989C61.6512 53.2164 61.3283 52.9741 60.9246 52.8127C60.5612 52.6512 60.1171 52.5704 59.6731 52.5704Z" fill="white"/>
<path d="M73.4394 49.7445C74.3275 49.7445 75.1349 49.906 75.902 50.1886C76.669 50.5115 77.3553 50.9152 77.9205 51.4804C78.4857 52.0456 78.9297 52.6512 79.2931 53.4182C79.616 54.1449 79.7775 54.9523 79.7775 55.8404C79.7775 56.6882 79.616 57.4956 79.2931 58.2627C78.9701 58.9893 78.526 59.6352 77.9205 60.2004C77.3553 60.7656 76.669 61.1693 75.902 61.4923C75.1349 61.8152 74.3275 61.9364 73.4394 61.9364C72.5512 61.9364 71.7438 61.7749 70.9768 61.4923C70.2097 61.2097 69.5638 60.7656 68.9583 60.2004C68.3931 59.6756 67.949 59.0297 67.6261 58.2627C67.3031 57.536 67.1416 56.7286 67.1416 55.8404C67.1416 54.9927 67.3031 54.1852 67.6261 53.4182C67.949 52.6915 68.3931 52.0456 68.9583 51.4804C69.5235 50.9556 70.2097 50.5115 70.9768 50.1886C71.7438 49.906 72.5916 49.7445 73.4394 49.7445ZM73.4798 52.5704C72.9953 52.5704 72.5916 52.6512 72.1879 52.8127C71.7842 52.9741 71.4612 53.176 71.1786 53.4989C70.896 53.7815 70.6942 54.1449 70.5327 54.5486C70.3712 54.9523 70.2905 55.3964 70.2905 55.8808C70.2905 56.3652 70.3712 56.8093 70.5327 57.213C70.6942 57.6167 70.896 57.9397 71.1786 58.2627C71.4612 58.5452 71.7842 58.7471 72.1879 58.9086C72.5916 59.0701 72.9953 59.1508 73.4798 59.1508C73.9238 59.1508 74.3679 59.0701 74.7312 58.9086C75.1349 58.7471 75.4579 58.5452 75.7405 58.2627C76.0231 57.9801 76.2653 57.6167 76.4268 57.213C76.5883 56.8093 76.669 56.3652 76.669 55.8808C76.669 55.3964 76.5883 54.9523 76.4268 54.5486C76.2653 54.1449 76.0231 53.8219 75.7405 53.4989C75.4579 53.2164 75.1349 52.9741 74.7312 52.8127C74.3275 52.6512 73.9238 52.5704 73.4798 52.5704Z" fill="white"/>
<path d="M85.6312 49.9463C86.5193 49.9463 87.3671 50.0674 88.1745 50.35C88.9415 50.6326 89.6278 50.9959 90.193 51.5207C90.7582 52.0052 91.2022 52.6511 91.5252 53.3778C91.8482 54.1044 92.0096 54.9119 92.0096 55.8C92.0096 56.6882 91.8482 57.4956 91.5252 58.2222C91.2022 58.9489 90.7582 59.5545 90.193 60.0793C89.6278 60.6041 88.9415 61.0078 88.1745 61.2904C87.4074 61.573 86.5597 61.7345 85.6312 61.7345H81.5538V49.9867H85.6312V49.9463ZM84.5815 52.7318V58.9489H85.5908C86.0349 58.9489 86.4789 58.8682 86.8826 58.747C87.2863 58.5856 87.6497 58.3837 87.9323 58.1415C88.2148 57.8993 88.4571 57.5359 88.6186 57.1726C88.78 56.7689 88.8608 56.3248 88.8608 55.8404C88.8608 55.3156 88.78 54.8715 88.6186 54.4678C88.4571 54.0641 88.2148 53.7815 87.9323 53.4989C87.6497 53.2163 87.2863 53.0548 86.8826 52.9337C86.4789 52.8126 86.0349 52.7318 85.5908 52.7318H84.5815Z" fill="white"/>
</svg>
