<svg width="52" height="52" viewBox="0 0 52 52" fill="none" xmlns="http://www.w3.org/2000/svg">
<path d="M47.6666 8.66699H45.9332C45.4546 8.66699 45.0666 9.05506 45.0666 9.53362V15.6004H38.1332C37.6546 15.6004 37.2666 15.9883 37.2666 16.467C37.2666 16.9457 37.6546 17.3336 38.1332 17.3336H45.0666V37.267C45.0666 37.7456 45.4547 38.1336 45.9332 38.1336H47.6666C49.1025 38.1336 50.2666 39.2977 50.2666 40.7336C50.2666 42.1695 49.1026 43.3336 47.6666 43.3336H4.33336C3.39259 43.3368 2.47904 43.6493 1.73337 44.2228V19.9337C1.73337 18.4978 2.89747 17.3337 4.33336 17.3337H13.8667C14.3454 17.3337 14.7334 16.9458 14.7334 16.4671C14.7334 15.9884 14.3454 15.6005 13.8667 15.6005H4.33336C1.94126 15.6032 0.00284375 17.5416 0 19.9337V47.6671C0.00284375 50.0591 1.94126 51.9975 4.33336 52.0003H6.93336C7.41203 52.0003 7.79999 51.6124 7.79999 51.1337V45.0671H47.6666C50.0586 45.0642 51.997 43.1258 52 40.7337V13.0004C51.9971 10.6084 50.0587 8.66994 47.6666 8.66699ZM6.06663 50.267H4.33336C2.89747 50.267 1.73337 49.103 1.73337 47.667C1.73337 46.231 2.89747 45.067 4.33336 45.067H6.06673V50.267H6.06663ZM50.2666 37.2895C49.5209 36.716 48.6074 36.4035 47.6666 36.4003H46.8V10.4004H47.6666C49.1025 10.4004 50.2666 11.5644 50.2666 13.0004V37.2895Z" fill="#B69C7D"/>
<path d="M17.3334 13.8666H17.5275L17.4598 14.0157C17.2701 14.5215 17.2262 15.0704 17.3333 15.6V17.81C17.333 18.717 17.6957 19.5865 18.3404 20.2245C18.5941 20.4784 18.7656 20.8027 18.8327 21.1554C19.183 22.6856 19.8536 24.1243 20.8 25.3769V26.4784C19.9785 26.3224 19.1399 26.6484 18.6394 27.3183L17.2709 29.1444C17.2489 29.1814 17.23 29.2202 17.2146 29.2604L13.0962 31.7304C11.4292 32.7389 10.4075 34.5427 10.4 36.4911V39.8667C10.4 40.3454 10.788 40.7333 11.2667 40.7333H40.7333C41.2119 40.7333 41.5999 40.3453 41.5999 39.8667V36.4867C41.5922 34.5379 40.5703 32.7339 38.9028 31.7253L34.7853 29.2562C34.7698 29.216 34.751 29.1771 34.7289 29.1401L33.3604 27.314C32.8582 26.6466 32.0204 26.3226 31.1998 26.4785V25.377C32.1463 24.1231 32.8171 22.6833 33.168 21.152C33.235 20.801 33.4058 20.4782 33.6585 20.2255C34.3037 19.5874 34.6666 18.7177 34.6664 17.8102V15.6C34.7733 15.0796 34.7343 14.5397 34.5538 14.04L34.4724 13.8666H34.6664C36.1023 13.8666 37.2664 12.7026 37.2664 11.2666C37.2664 9.83064 36.1023 8.66663 34.6664 8.66663H34.6569C34.6464 5.17613 32.0595 2.22991 28.5998 1.768V1.51663C28.6184 0.699461 27.9725 0.0213281 27.1553 0H24.8447C24.0276 0.0213281 23.3816 0.699461 23.4 1.51663V1.768C19.9403 2.22991 17.3534 5.17623 17.3429 8.66663H17.3334C15.8975 8.66663 14.7334 9.83074 14.7334 11.2666C14.7334 12.7025 15.8974 13.8666 17.3334 13.8666ZM20.0252 28.3591C20.1565 28.1807 20.3949 28.1189 20.5963 28.2109L24.6003 29.9902L22.8548 32.0841C22.7742 32.1815 22.6576 32.2421 22.5316 32.2523C22.4059 32.2608 22.2818 32.2208 22.1849 32.1404L19.1447 29.5344L20.0252 28.3591ZM26 31.018L27.417 32.7193L26.4732 33.8H25.5268L24.583 32.7193L26 31.018ZM12.1333 39V36.491C12.1293 35.1478 12.8353 33.9025 13.9896 33.2159L17.9824 30.8204L21.0599 33.4533C21.4582 33.7958 21.9663 33.984 22.4916 33.9837C22.5549 33.9837 22.6173 33.9837 22.6805 33.9759C22.8801 33.9562 23.0761 33.9092 23.2629 33.8363L24.1045 34.7983L22.035 39H12.1333ZM23.9668 39L25.6733 35.5333H26.3267L28.0332 39H23.9668ZM34.0176 30.8203L38.0095 33.215C39.1643 33.9016 39.8706 35.1473 39.8667 36.491V39H29.965L27.8989 34.8019L28.7405 33.8399C28.9273 33.9127 29.1233 33.9596 29.3228 33.9794C29.3861 33.9846 29.4485 33.9873 29.5117 33.9873C30.0364 33.9861 30.5432 33.7967 30.94 33.4533L34.0176 30.8203ZM31.4036 28.2073C31.6059 28.1174 31.8434 28.18 31.9747 28.3582L32.8553 29.5343L29.8133 32.1394C29.7163 32.2198 29.5923 32.26 29.4666 32.2521C29.3406 32.242 29.224 32.1814 29.1434 32.0839L27.3996 29.9865L31.4036 28.2073ZM32.9481 15.3746C32.9381 15.426 32.9333 15.4783 32.9334 15.5306V17.81C32.9322 18.2579 32.7518 18.6867 32.4325 19.0008C31.94 19.4951 31.6049 20.1242 31.4696 20.8087C31.1579 22.1198 30.5732 23.3504 29.7536 24.4201C29.5678 24.6817 29.4676 24.9945 29.4666 25.3154V27.1744L26 28.7153L22.5334 27.1744V25.3154C22.5317 24.9892 22.4284 24.6718 22.2378 24.4071C21.4227 23.342 20.8411 22.1171 20.5314 20.8122C20.396 20.126 20.0603 19.4954 19.5667 19C19.2479 18.686 19.0679 18.2576 19.0667 17.8101V15.5307C19.0669 15.4798 19.0622 15.4291 19.0527 15.3791C19.0161 15.1762 19.0061 14.9693 19.0233 14.7637L19.1368 14.5133C19.2105 14.3685 19.3846 14.0921 19.5303 13.8667H32.4706C32.6145 14.0895 32.7843 14.3581 32.8466 14.4734L32.9732 14.7455C32.9955 14.9553 32.987 15.1672 32.9481 15.3746ZM23.4 3.51782V6.06673C23.4 6.54539 23.788 6.93336 24.2666 6.93336C24.7453 6.93336 25.1333 6.54539 25.1333 6.06673V1.73337H26.8666V6.06673C26.8666 6.54539 27.2547 6.93336 27.7333 6.93336C28.2119 6.93336 28.5999 6.54539 28.5999 6.06673V3.51782C31.093 3.96896 32.9103 6.13315 32.9237 8.66673H19.0762C19.0896 6.13315 20.907 3.96896 23.4 3.51782ZM17.3334 10.4H34.6667C35.1454 10.4 35.5334 10.788 35.5334 11.2666C35.5334 11.7453 35.1454 12.1333 34.6667 12.1333H17.3334C16.8547 12.1333 16.4668 11.7453 16.4668 11.2666C16.4668 10.788 16.8547 10.4 17.3334 10.4Z" fill="#B69C7D"/>
</svg>
