<svg width="12" height="12" viewBox="0 0 12 12" fill="none" xmlns="http://www.w3.org/2000/svg">
<path d="M0.817969 10.0907H2.72709V11.7273C2.72709 11.8069 2.75257 11.8721 2.80383 11.9231C2.85494 11.9744 2.92029 12 2.9999 12H4.42312C4.49698 12 4.5609 11.9744 4.61488 11.9231C4.66887 11.8721 4.69578 11.8069 4.69578 11.7273V10.0907H8.99974C9.07918 10.0907 9.14455 10.0654 9.19579 10.0141C9.24707 9.96291 9.27252 9.89768 9.27252 9.81805V8.7271C9.27252 8.64794 9.24707 8.58229 9.19579 8.53133C9.1447 8.48005 9.07918 8.45441 8.99974 8.45441H4.69564V7.44869H7.59336C8.72967 7.44869 9.65709 7.10244 10.376 6.40897C11.0947 5.71622 11.4542 4.82136 11.4542 3.72434C11.4542 2.62805 11.0947 1.73317 10.376 1.03972C9.65723 0.346949 8.72965 0 7.59336 0H2.99975C2.92013 0 2.85492 0.0256172 2.80369 0.0765927C2.75257 0.127851 2.72695 0.193481 2.72695 0.272662V5.63359H0.817969C0.738365 5.63359 0.673134 5.66052 0.6219 5.71448C0.570807 5.76847 0.545166 5.83238 0.545166 5.90622V7.17598C0.545166 7.2556 0.570642 7.32084 0.6219 7.37207C0.673158 7.42335 0.738224 7.44866 0.817969 7.44866H2.72709V8.45439H0.817969C0.738365 8.45439 0.673134 8.48003 0.6219 8.53131C0.570807 8.58226 0.545166 8.64778 0.545166 8.72707V9.81803C0.545166 9.89765 0.570642 9.96288 0.6219 10.0141C0.673134 10.0654 0.738341 10.0907 0.817969 10.0907ZM4.69564 1.81552H7.42291C8.02512 1.81552 8.51083 1.9916 8.88027 2.34386C9.24952 2.69615 9.43422 3.15653 9.43422 3.72448C9.43422 4.29272 9.24952 4.75324 8.88027 5.10511C8.51083 5.45768 8.02509 5.63375 7.42291 5.63375H4.69564V1.81552Z" fill="#FDE1C0"/>
</svg>
