<svg width="47" height="52" viewBox="0 0 47 52" fill="none" xmlns="http://www.w3.org/2000/svg">
<path d="M34.2571 40.2188C33.7009 40.2188 33.2495 40.6738 33.2495 41.2344C33.2495 41.795 33.7009 42.25 34.2571 42.25C34.8132 42.25 35.2646 41.795 35.2646 41.2344C35.2646 40.6738 34.8132 40.2188 34.2571 40.2188Z" fill="#B69C7D"/>
<path d="M36.7379 36.9345L31.949 35.3258L30.2298 31.8598C31.7786 30.2707 32.854 28.1682 33.2166 25.9751L33.431 24.6797H35.2646C36.9314 24.6797 38.2873 23.3129 38.2873 21.6328V15.2344C38.2873 6.83414 31.5075 0 23.1739 0C14.819 0 8.06049 6.81454 8.06049 15.2344V21.6328C8.06049 22.9568 8.90291 24.0858 10.0756 24.505V25.6953C10.0756 27.3754 11.4316 28.7422 13.0983 28.7422H13.9831C14.4199 29.6986 14.9853 30.5844 15.6732 31.3802C15.8159 31.5455 15.9647 31.7058 16.1172 31.8617L14.3989 35.3258L9.60982 36.9346C4.04153 38.8062 0 44.715 0 50.9844C0 51.5453 0.451085 52 1.00756 52H45.3403C45.8966 52 46.3478 51.5453 46.3478 50.9844C46.3478 44.715 42.3064 38.8062 36.7379 36.9345ZM36.2722 21.6328C36.2722 22.1928 35.8202 22.6484 35.2646 22.6484H33.7269C33.983 20.6487 34.1537 18.5206 34.2223 16.4247C34.2243 16.3656 34.226 16.3081 34.2278 16.25H36.2722V21.6328ZM11.0832 22.6484C10.5276 22.6484 10.0756 22.1928 10.0756 21.6328V16.25H12.1208C12.1241 16.3559 12.1276 16.4624 12.1315 16.5695C12.1316 16.5732 12.1318 16.5767 12.1319 16.5804C12.1319 16.5807 12.1319 16.581 12.1319 16.5813C12.2025 18.6199 12.3709 20.6926 12.6212 22.6483H11.0832V22.6484ZM13.0983 26.7109C12.5427 26.7109 12.0907 26.2553 12.0907 25.6953V24.6797H12.9167L13.1311 25.9755C13.1721 26.2218 13.2223 26.4672 13.2805 26.7109H13.0983ZM12.0924 14.2188H10.1139C10.6242 7.41193 16.2597 2.03125 23.1739 2.03125C30.0574 2.03125 35.7176 7.41122 36.2338 14.2188H34.2555C34.1829 8.60976 29.6516 4.0625 24.0758 4.0625H22.2722C16.6965 4.0625 12.1649 8.60976 12.0924 14.2188ZM22.2721 6.09375H24.0757C28.5905 6.09375 32.2446 9.81612 32.242 14.362C32.242 14.6816 32.2394 14.9599 32.2341 15.213C32.2341 15.2163 32.234 15.2196 32.234 15.223L30.9737 15.0415C27.5501 14.5487 24.3174 12.9195 21.8712 10.4537C21.6822 10.2633 21.426 10.1562 21.1588 10.1562C18.4529 10.1562 15.8626 11.399 14.1504 13.4985C14.5724 9.36295 18.0407 6.09375 22.2721 6.09375ZM15.3693 26.7109C14.865 25.0196 14.2878 20.0431 14.1603 16.854L15.5163 15.0314C16.7618 13.358 18.6994 12.3183 20.7606 12.199C23.4727 14.8006 26.9812 16.5186 30.6888 17.0522L32.1721 17.2659C32.073 19.3871 31.8704 21.5156 31.5801 23.4732C31.58 23.4738 31.5799 23.4745 31.5798 23.4753C31.4875 24.1046 31.4148 24.5097 31.229 25.641C30.6954 28.8671 28.3072 31.7845 25.1547 32.579C23.8572 32.9055 22.4904 32.9054 21.1936 32.579C19.2252 32.083 17.4202 30.7101 16.2554 28.7422H18.3094C18.7253 29.9243 19.8452 30.7734 21.1588 30.7734H23.1739C24.8439 30.7734 26.1966 29.4101 26.1966 27.7266C26.1966 26.0465 24.8406 24.6797 23.1739 24.6797H21.1588C19.816 24.6797 18.7126 25.5539 18.3077 26.7109H15.3693ZM21.0741 34.6344C21.7651 34.7812 22.4697 34.8563 23.1739 34.8563C23.7251 34.8563 24.2765 34.8097 24.8216 34.7195L23.0412 36.6174L21.0741 34.6344ZM21.656 38.094L18.4602 41.5006C17.5804 39.8031 16.8245 38.0364 16.2044 36.2278L17.4045 33.8083L21.656 38.094ZM28.7725 33.4642L30.1432 36.2276C29.5222 38.0393 28.766 39.8066 27.8871 41.5021L24.4666 38.0542L28.7725 33.4642ZM20.1512 27.7266C20.1512 27.1658 20.6024 26.7109 21.1588 26.7109H23.1739C23.7295 26.7109 24.1815 27.1665 24.1815 27.7266C24.1815 28.2874 23.7302 28.7422 23.1739 28.7422H21.1588C20.6032 28.7422 20.1512 28.2866 20.1512 27.7266ZM2.05543 49.9688C2.45472 44.9374 5.77655 40.3643 10.2471 38.8616L14.4883 37.4369C15.2654 39.6027 16.228 41.7078 17.3562 43.7073C17.3581 43.7108 17.3599 43.7142 17.3618 43.7176C17.3618 43.7177 17.3619 43.7177 17.3619 43.7178C18.1862 45.1792 19.1139 46.6072 20.1198 47.963L21.3593 49.9688H2.05543ZM23.1739 49.0634L21.8075 46.8521C21.7921 46.8273 21.7758 46.8032 21.7585 46.7799C20.9426 45.6828 20.1815 44.5355 19.4883 43.3611L23.0815 39.5308L26.8677 43.3473C26.1699 44.5302 25.4062 45.6823 24.5895 46.7797C24.5402 46.846 24.6102 46.7415 23.1739 49.0634ZM24.9885 49.9688L26.2279 47.9631C27.2382 46.6022 28.1726 45.1626 29.0052 43.6841C29.0102 43.6751 29.0149 43.666 29.02 43.657C29.0206 43.6559 29.0212 43.6549 29.0218 43.6538C30.1357 41.6733 31.0882 39.5865 31.8595 37.4369L36.1006 38.8616C40.5713 40.3643 43.8931 44.9374 44.2924 49.9688H24.9885Z" fill="#B69C7D"/>
<path d="M41.2642 45.8584C40.5908 44.4998 39.6045 43.2929 38.4119 42.368C37.9708 42.0259 37.3382 42.109 36.999 42.5537C36.6596 42.9983 36.7421 43.6359 37.1831 43.978C38.1357 44.7167 38.9234 45.6808 39.4613 46.7662C39.7105 47.2688 40.3161 47.4711 40.813 47.2209C41.3107 46.9702 41.5127 46.3602 41.2642 45.8584Z" fill="#B69C7D"/>
</svg>
