<svg width="52" height="52" viewBox="0 0 52 52" fill="none" xmlns="http://www.w3.org/2000/svg">
<path d="M10.981 28.3424C10.7921 28.1536 10.53 28.0449 10.2629 28.0449C9.99479 28.0449 9.73277 28.1535 9.54382 28.3424C9.35487 28.5311 9.24622 28.7929 9.24622 29.0598C9.24622 29.3279 9.35487 29.5886 9.54382 29.7774C9.73378 29.9672 9.99581 30.0748 10.2629 30.0748C10.53 30.0748 10.791 29.9672 10.981 29.7774C11.17 29.5886 11.2786 29.3278 11.2786 29.0598C11.2785 28.7929 11.1699 28.5311 10.981 28.3424Z" fill="#B69C7D"/>
<path d="M17.372 37.068C17.372 36.7601 17.2321 36.4689 16.9918 36.2763L15.7836 35.308L16.7526 34.1007C16.9211 33.8908 16.9993 33.6224 16.9698 33.3549C16.9403 33.0873 16.8058 32.8424 16.5957 32.674L15.3875 31.7057L16.3565 30.4985C16.525 30.2885 16.6032 30.0202 16.5737 29.7527C16.5442 29.4851 16.4098 29.2402 16.1996 29.0718L14.9914 28.1035L15.9603 26.8963C16.3113 26.459 16.241 25.8203 15.8035 25.4697L14.5953 24.5014L15.5643 23.2941C15.9153 22.8568 15.8451 22.2181 15.4075 21.8675L14.1993 20.8992L15.1683 19.6919C15.337 19.482 15.415 19.2136 15.3855 18.9461C15.3561 18.6785 15.2216 18.4336 15.0114 18.2652L13.8032 17.297L14.7722 16.0898C14.9408 15.8798 15.0189 15.6115 14.9895 15.344C14.96 15.0764 14.8254 14.8315 14.6153 14.6631L13.4071 13.6948L14.3762 12.4875C14.5448 12.2776 14.6228 12.0093 14.5935 11.7418C14.564 11.4741 14.4294 11.2293 14.2193 11.0609L13.0111 10.0927L13.9802 8.88542C14.3311 8.44809 14.2609 7.80936 13.8233 7.45877L12.6151 6.49047L13.5842 5.28319C13.7528 5.07326 13.8309 4.80493 13.8015 4.53742C13.772 4.2698 13.6374 4.02493 13.4273 3.85654L12.2199 2.88885L13.2164 1.64968C13.4612 1.3452 13.5095 0.927471 13.3405 0.575353C13.1716 0.223235 12.8157 0 12.4249 0H1.01569C0.454737 0 0 0.454493 0 1.01481V50.9852C0 51.5456 0.454737 52 1.01559 52H16.3564C16.9174 52 17.372 51.5455 17.372 50.9852V42.3595C17.372 42.3537 17.372 42.3481 17.3719 42.3423L17.372 37.068ZM2.03117 2.02973H10.3059L9.99985 2.41018C9.83102 2.62001 9.75266 2.88844 9.78203 3.15626C9.8114 3.42398 9.94598 3.66905 10.1562 3.83755L11.3644 4.80574L10.3953 6.01302C10.0444 6.45035 10.1146 7.08908 10.5522 7.43967L11.7604 8.40797L10.7913 9.61524C10.6227 9.82518 10.5446 10.0935 10.574 10.361C10.6035 10.6286 10.7381 10.8735 10.9481 11.0419L12.1563 12.0102L11.1873 13.2175C11.0188 13.4274 10.9406 13.6957 10.9701 13.9632C10.9996 14.2309 11.134 14.4757 11.3442 14.6441L12.5524 15.6124L11.5834 16.8197C11.4149 17.0296 11.3367 17.298 11.3662 17.5655C11.3957 17.8331 11.5302 18.078 11.7403 18.2463L12.9485 19.2146L11.9796 20.4218C11.6286 20.8592 11.6989 21.4979 12.1364 21.8485L13.3446 22.8168L12.3756 24.024C12.0246 24.4614 12.0948 25.1001 12.5324 25.4507L13.7406 26.419L12.7717 27.6263C12.603 27.8362 12.525 28.1045 12.5544 28.372C12.5838 28.6397 12.7184 28.8845 12.9285 29.0529L14.1367 30.0212L13.1677 31.2285C12.999 31.4384 12.921 31.7068 12.9504 31.9743C12.9798 32.2419 13.1144 32.4868 13.3245 32.6552L14.5327 33.6235L13.5636 34.8307C13.2128 35.2681 13.2829 35.9068 13.7205 36.2574L15.3406 37.5559V39.9102L13.0123 37.5837C12.8219 37.3934 12.5636 37.2864 12.2942 37.2864H2.03127V22.271L7.24591 27.4816C7.44421 27.6798 7.70421 27.7789 7.9641 27.7789C8.22399 27.7789 8.48399 27.6798 8.68229 27.4816C9.07889 27.0854 9.07889 26.4428 8.68229 26.0464L2.03127 19.4005V15.4981L5.51925 18.9834C5.71765 19.1815 5.97755 19.2807 6.23744 19.2807C6.49733 19.2807 6.75733 19.1815 6.95563 18.9834C7.35223 18.5871 7.35223 17.9445 6.95563 17.5481L2.03127 12.6275V2.02973H2.03117ZM11.7052 49.9704H5.67984V43.6987H10.3398L11.7053 45.0631V49.9704H11.7052ZM15.3409 49.9704H13.7364V44.6428C13.7364 44.3737 13.6294 44.1156 13.4389 43.9252L11.4786 41.9662C11.2881 41.7759 11.0298 41.6689 10.7604 41.6689H4.66416C4.1032 41.6689 3.64857 42.1234 3.64857 42.6838V49.9703H2.03127V39.3152H11.8736L15.3409 42.7799V49.9704Z" fill="#B69C7D"/>
<path d="M27.7285 37.0396C27.5396 36.8508 27.2775 36.7422 27.0104 36.7422C26.7423 36.7422 26.4803 36.8507 26.2924 37.0396C26.1024 37.2284 25.9948 37.4902 25.9948 37.7571C25.9948 38.024 26.1024 38.2858 26.2924 38.4745C26.4813 38.6634 26.7423 38.772 27.0104 38.772C27.2775 38.772 27.5386 38.6634 27.7285 38.4745C27.9175 38.2858 28.0261 38.024 28.0261 37.7571C28.0261 37.4902 27.9175 37.2283 27.7285 37.0396Z" fill="#B69C7D"/>
<path d="M41.3823 5.48145H37.3479C36.9862 5.48145 36.6518 5.6737 36.47 5.98601L35.9964 6.79942H35.451L35.2775 6.20985C35.1503 5.77801 34.7536 5.48145 34.303 5.48145H24.8376C20.135 5.48145 16.3092 9.30437 16.3092 14.0034V17.04C16.3092 17.6004 16.7639 18.0548 17.3248 18.0548H19.8721C20.433 18.0548 20.8877 17.6002 20.8877 17.0399C20.8877 15.7186 21.9634 14.6436 23.2858 14.6436H25.9236C26.7326 14.6436 27.3907 15.3012 27.3907 16.1096V25.6241C26.5614 26.0586 25.9943 26.9267 25.9943 27.9255V33.9079C25.9943 34.4684 26.449 34.9227 27.0099 34.9227C27.5708 34.9227 28.0254 34.4683 28.0254 33.9079V27.9255C28.0254 27.6125 28.2803 27.3578 28.5935 27.3578H30.9254V34.7429C30.9254 35.3033 31.3802 35.7577 31.941 35.7577C32.5019 35.7577 32.9566 35.3032 32.9566 34.7429V27.3578H34.1157C34.4289 27.3578 34.6837 27.6125 34.6837 27.9255V49.3643C34.6837 49.6773 34.4289 49.9319 34.1157 49.9319H32.0933V43.8697C32.0933 43.3093 31.6385 42.8549 31.0777 42.8549C30.5168 42.8549 30.0621 43.3094 30.0621 43.8697V49.9319H28.5934C28.2801 49.9319 28.0253 49.6773 28.0253 49.3643V41.7116C28.0253 41.1512 27.5706 40.6968 27.0098 40.6968C26.4488 40.6968 25.9942 41.1513 25.9942 41.7116V49.3643C25.9942 50.7964 27.1602 51.9615 28.5934 51.9615H34.1157C35.5489 51.9615 36.7148 50.7965 36.7148 49.3643V27.9254C36.7148 26.9267 36.1475 26.0585 35.3183 25.624V16.1836L35.5678 14.4884H35.996L36.4696 15.3018C36.6515 15.6143 36.9858 15.8064 37.3474 15.8064H41.3819C41.9429 15.8064 42.3975 15.3519 42.3975 14.7916V6.49626C42.3979 5.93584 41.9432 5.48145 41.3823 5.48145ZM33.2874 25.3281H29.4222V17.1243H33.2874V25.3281ZM40.3667 13.7767H37.9319L37.4583 12.9633C37.2764 12.6509 36.9421 12.4587 36.5805 12.4587H34.691C34.1872 12.4587 33.7595 12.8278 33.6862 13.3258L33.4259 15.0946H29.2719C28.8356 13.6605 27.4997 12.6138 25.9238 12.6138H23.286C21.1929 12.6138 19.4343 14.0718 18.974 16.025H18.3405V14.0032C18.3405 10.4234 21.2551 7.51097 24.8376 7.51097H33.5431L33.7166 8.10054C33.8437 8.53239 34.2404 8.82895 34.691 8.82895H36.5805C36.9421 8.82895 37.2765 8.63669 37.4583 8.32439L37.9319 7.51107H40.3667V13.7767Z" fill="#B69C7D"/>
<path d="M50.9842 20.8018H40.7712C40.2103 20.8018 39.7556 21.2563 39.7556 21.8166V23.8024C39.7556 24.0716 39.8626 24.3296 40.0531 24.5201L42.1847 26.65V38.0898C42.1847 38.2358 42.2163 38.3802 42.2772 38.513L44.9547 44.344C45.1203 44.7045 45.4808 44.9357 45.8778 44.9357C46.2748 44.9357 46.6353 44.7046 46.8009 44.344L49.4784 38.513C49.5395 38.3802 49.5709 38.2359 49.5709 38.0898V26.6501L51.7025 24.5202C51.8929 24.3297 52 24.0717 52 23.8025V21.8167C51.9999 21.2561 51.5451 20.8018 50.9842 20.8018ZM47.5395 37.868L45.8778 41.4872L44.7369 39.0026L47.5396 36.2019V37.868H47.5395ZM47.5395 33.3314L44.2158 36.6527V34.5199L47.5395 31.1987V33.3314ZM49.9686 23.3822L47.837 25.512C47.6465 25.7025 47.5395 25.9605 47.5395 26.2297V28.3282L44.2158 31.6494V29.5773L46.1883 27.6063C46.5849 27.21 46.5849 26.5674 46.1883 26.171C45.7917 25.7748 45.1486 25.7748 44.752 26.171L44.2159 26.7067V26.2299C44.2159 25.9607 44.1089 25.7027 43.9184 25.5122L41.7868 23.3824V22.8315H49.9685V23.3822H49.9686Z" fill="#B69C7D"/>
</svg>
