<svg width="41" height="22" viewBox="0 0 41 22" fill="none" xmlns="http://www.w3.org/2000/svg">
<path d="M39.9326 19.3671C39.8823 19.2664 39.8392 19.18 39.7961 19.1081C39.1133 17.8774 37.8052 16.3588 35.879 14.5667L35.8359 14.5236L35.8143 14.502L35.7928 14.4804H35.7712C34.8944 13.6455 34.3409 13.0842 34.1109 12.7963C33.6869 12.2493 33.5935 11.6951 33.8234 11.1338C33.9888 10.7091 34.6069 9.80952 35.6706 8.44209C36.2312 7.71519 36.6768 7.13223 37.0074 6.69322C39.372 3.54093 40.3998 1.52577 40.0836 0.654928L39.9614 0.453411C39.8823 0.331062 39.6667 0.21591 39.3289 0.115152C38.9839 0.0143941 38.5455 -0.00719723 38.0136 0.0647728L32.1057 0.107955C32.0123 0.0719703 31.8757 0.0791672 31.696 0.115152C31.5163 0.158334 31.4301 0.179925 31.4301 0.179925L31.3295 0.230304L31.2504 0.295077C31.1785 0.338259 31.1067 0.410229 31.0276 0.510988C30.9485 0.611746 30.8767 0.734095 30.8263 0.870838C30.1795 2.52615 29.4536 4.06631 28.627 5.49132C28.1239 6.34056 27.6568 7.07466 27.2327 7.7008C26.8087 8.32694 26.4565 8.78035 26.169 9.07542C25.8815 9.3705 25.6228 9.608 25.3856 9.78073C25.1556 9.96066 24.9759 10.0326 24.8537 10.0038C24.7315 9.97505 24.6165 9.94626 24.5015 9.92467C24.3075 9.80232 24.1565 9.63679 24.0415 9.42088C23.9265 9.20497 23.8475 8.93868 23.8044 8.62201C23.7612 8.29815 23.7397 8.02466 23.7325 7.78716C23.7253 7.55686 23.7325 7.22579 23.7397 6.80117C23.7541 6.37655 23.7612 6.08867 23.7612 5.93753C23.7612 5.41935 23.7684 4.85078 23.79 4.23904C23.8116 3.62729 23.8259 4.15267 23.8403 3.80002C23.8547 3.44737 23.8619 3.06592 23.8619 2.67009C23.8619 2.27425 23.8403 1.96478 23.79 1.73448C23.7397 1.51137 23.6678 1.28826 23.5744 1.07955C23.4809 0.870838 23.3372 0.705307 23.1503 0.582958C22.9635 0.467805 22.7335 0.374244 22.4603 0.302274C21.7344 0.136743 20.8145 0.0503793 19.6932 0.0359853C17.1489 0.00719722 15.5174 0.172728 14.7915 0.532578C14.504 0.683715 14.2453 0.885232 14.0153 1.15152C13.7709 1.4538 13.735 1.61933 13.9147 1.64811C14.734 1.77046 15.3162 2.06554 15.6612 2.53335L15.7834 2.77804C15.8768 2.95797 15.9774 3.27464 16.0708 3.72085C16.1643 4.17426 16.229 4.67086 16.2577 5.21783C16.3224 6.21821 16.3224 6.06708 16.2577 6.77958C16.1858 7.49208 16.1212 8.04625 16.0637 8.44209C15.999 8.83792 15.9127 9.16179 15.7834 9.40649C15.6612 9.65119 15.5749 9.80232 15.539 9.8599C15.4959 9.91747 15.4671 9.94626 15.4384 9.96066C15.2587 10.0254 15.079 10.0614 14.8849 10.0614C14.6909 10.0614 14.4609 9.96785 14.1878 9.77353C13.9147 9.57922 13.6272 9.32012 13.3397 8.98186C13.045 8.6436 12.7144 8.1758 12.3406 7.57125C11.9741 6.9667 11.586 6.2542 11.1907 5.43374L10.8601 4.83639C10.6516 4.45495 10.3713 3.89358 10.0191 3.15949C9.65978 2.42539 9.35073 1.72008 9.07761 1.02917C8.9698 0.741292 8.80449 0.525381 8.58169 0.374244L8.48107 0.309471C8.41638 0.251895 8.30138 0.194319 8.15045 0.136743C7.99952 0.0719698 7.8414 0.0287882 7.67609 2.19635e-07L2.05563 0.0431821C1.48065 0.0431821 1.09253 0.172728 0.884102 0.431821L0.805042 0.554169C0.761918 0.62614 0.740357 0.734095 0.740357 0.885232C0.740357 1.03637 0.78348 1.22349 0.86254 1.4394C1.66752 3.39699 2.56593 5.25381 3.52902 7.05307C4.49212 8.85232 5.33303 10.2917 6.04458 11.3857C6.75612 12.4796 7.48203 13.516 8.22232 14.4876C8.96262 15.4592 9.45135 16.0853 9.68853 16.3588C9.92571 16.6323 10.1198 16.841 10.2563 16.9777L10.7666 17.4743C11.0972 17.8054 11.5788 18.194 12.2113 18.6546C12.8509 19.1152 13.5553 19.5687 14.3243 20.0149C15.1006 20.4611 15.999 20.8209 17.0196 21.1016C18.0473 21.3823 19.0464 21.4975 20.0167 21.4399H22.3741C22.8556 21.3967 23.215 21.2456 23.4594 20.9865L23.5384 20.8857C23.5959 20.8065 23.6462 20.677 23.6894 20.5043C23.7397 20.3315 23.7612 20.1444 23.7612 19.9357C23.7469 19.3456 23.79 18.813 23.8978 18.3452C23.9984 17.8702 24.1134 17.5175 24.25 17.28C24.3793 17.0425 24.5303 16.841 24.6884 16.6755C24.8537 16.5099 24.9687 16.4092 25.0406 16.3804C25.1053 16.3444 25.1628 16.3228 25.2059 16.3084C25.5365 16.2005 25.9174 16.3084 26.363 16.6251C26.8087 16.9489 27.2255 17.3448 27.6136 17.8198C28.0017 18.2948 28.4689 18.8202 29.0223 19.4103C29.5686 20.0005 30.0501 20.4395 30.4598 20.7274L30.8695 20.9721C31.1426 21.1376 31.502 21.2887 31.9404 21.4255C32.3788 21.5622 32.7597 21.5982 33.0903 21.5262L38.3443 21.4471C38.8617 21.4471 39.2714 21.3607 39.5517 21.188C39.8392 21.0153 40.0117 20.8281 40.062 20.6194C40.1195 20.4107 40.1195 20.1804 40.0692 19.9213C40.0261 19.655 39.9758 19.4751 39.9326 19.3671Z" fill="#B69C7D"/>
</svg>
