<svg width="31" height="22" viewBox="0 0 31 22" fill="none" xmlns="http://www.w3.org/2000/svg">
<path d="M30.0697 8.2544C30.0587 7.64803 30.0109 6.88135 29.9272 5.95507C29.843 5.02826 29.7226 4.19998 29.5661 3.47018C29.387 2.65046 28.998 1.95971 28.3993 1.39818C27.8006 0.836539 27.1037 0.510963 26.3088 0.420984C23.8238 0.140426 20.0686 0 15.0432 0C10.0177 0 6.26252 0.140426 3.77768 0.420984C2.98286 0.510904 2.28878 0.836539 1.69572 1.39818C1.10243 1.95954 0.716254 2.65028 0.537131 3.47018C0.369418 4.20022 0.243338 5.02844 0.159422 5.95507C0.0756242 6.88135 0.0279915 7.64774 0.0168772 8.2544C0.00552774 8.86083 0 9.70304 0 10.7812C0 11.8593 0.00552774 12.7018 0.016936 13.3081C0.0280503 13.9149 0.075683 14.6811 0.159481 15.6074C0.243397 16.5341 0.363772 17.3624 0.520489 18.0923C0.699612 18.9123 1.08849 19.6029 1.68731 20.1642C2.28625 20.7257 2.98316 21.0514 3.77774 21.1413C6.26257 21.4221 10.0176 21.5625 15.0433 21.5625C20.0692 21.5625 23.8238 21.4221 26.3089 21.1413C27.1038 21.0514 27.7976 20.7257 28.3909 20.1642C28.9842 19.6028 29.3701 18.9119 29.5492 18.0923C29.7171 17.3624 29.843 16.5341 29.9272 15.6074C30.0109 14.6812 30.0584 13.9145 30.0697 13.3081C30.0809 12.7018 30.0865 11.8593 30.0865 10.7812C30.0865 9.70304 30.081 8.86083 30.0697 8.2544ZM20.9868 11.691L12.3907 17.0814C12.2339 17.1937 12.0435 17.2498 11.8197 17.2498C11.6519 17.2498 11.4785 17.2047 11.2994 17.1149C10.9301 16.913 10.7455 16.5984 10.7455 16.1717V5.39083C10.7455 4.9643 10.9302 4.6497 11.2994 4.44762C11.6801 4.24518 12.0437 4.25651 12.3907 4.48131L20.9868 9.87178C21.3225 10.0624 21.4903 10.3658 21.4903 10.7813C21.4903 11.1967 21.3224 11.5002 20.9868 11.691Z" fill="#B69C7D"/>
</svg>
